<?xml version="1.0" encoding="UTF-8" standalone="no"?>
<!DOCTYPE svg PUBLIC "-//W3C//DTD SVG 1.1//EN" "http://www.w3.org/Graphics/SVG/1.1/DTD/svg11.dtd">
<svg xmlns="http://www.w3.org/2000/svg" version="1.1" viewBox="0.00 0.00 282.00 276.00">
<g stroke-width="2.00" fill="none" stroke-linecap="butt">
<path stroke="#888888" vector-effect="non-scaling-stroke" d="
  M 132.98 41.18
  C 133.07 42.93 132.78 44.03 133.72 45.50
  C 136.92 50.52 144.11 48.47 144.23 42.67
  C 144.30 38.69 140.91 36.70 137.23 37.04
  A 1.06 1.04 -24.9 0 1 136.41 36.75
  L 129.71 30.17
  Q 129.35 29.81 129.42 29.30
  C 130.53 22.06 121.01 19.31 118.43 25.88
  C 116.69 30.32 120.87 33.86 125.29 33.41
  Q 125.77 33.36 126.11 33.71
  L 132.60 40.32
  Q 132.95 40.68 132.98 41.18"
/>
<path stroke="#888888" vector-effect="non-scaling-stroke" d="
  M 135.90 67.28
  A 1.71 1.71 0.0 0 1 137.30 66.55
  L 154.90 66.50
  A 1.16 1.16 0.0 0 0 155.72 66.16
  L 174.69 47.18
  Q 175.12 46.76 174.70 46.33
  Q 166.94 38.50 159.10 30.75
  C 157.53 29.19 158.73 27.45 157.84 25.67
  C 154.20 18.38 143.65 23.78 147.82 30.93
  Q 149.63 34.05 153.95 33.40
  A 1.02 1.01 63.3 0 1 154.81 33.69
  L 167.51 46.39
  Q 167.90 46.77 167.51 47.15
  L 153.54 61.06
  A 1.51 1.47 -66.9 0 1 152.49 61.50
  L 137.00 61.50
  Q 136.53 61.50 136.23 61.14
  Q 132.26 56.38 128.00 59.50
  C 120.68 64.86 130.96 74.38 135.90 67.28"
/>
<path stroke="#888888" vector-effect="non-scaling-stroke" d="
  M 136.35 78.47
  C 126.34 68.62 120.58 87.39 131.80 87.07
  C 134.43 87.00 135.80 83.87 137.50 83.78
  Q 144.36 83.42 160.22 84.02
  Q 160.77 84.04 161.16 83.66
  L 190.95 54.23
  A 0.99 0.96 -22.5 0 0 191.25 53.53
  L 191.25 41.03
  A 1.02 1.01 68.5 0 1 191.57 40.29
  L 193.74 38.25
  Q 194.11 37.90 194.24 37.40
  C 195.91 31.10 188.05 26.53 184.41 31.69
  Q 181.12 36.34 185.88 40.21
  A 1.01 1.00 -70.7 0 1 186.25 40.99
  L 186.25 51.20
  A 0.97 0.95 67.8 0 1 185.97 51.88
  L 159.20 78.34
  A 1.40 1.40 0.0 0 1 158.21 78.75
  L 137.03 78.75
  Q 136.63 78.75 136.35 78.47"
/>
<path stroke="#888888" vector-effect="non-scaling-stroke" d="
  M 186.19 203.69
  Q 185.49 203.13 185.49 202.23
  L 185.60 133.32
  Q 185.60 132.77 185.22 132.38
  L 155.08 102.11
  Q 154.72 101.75 154.21 101.75
  L 121.21 101.75
  A 1.52 1.51 -22.6 0 1 120.15 101.32
  L 104.87 86.37
  Q 104.57 86.09 104.57 85.67
  L 104.33 41.07
  Q 104.32 40.55 104.69 40.19
  L 106.58 38.29
  Q 106.93 37.95 107.04 37.48
  Q 108.08 33.20 105.32 30.98
  C 99.14 26.00 92.10 35.66 98.84 40.22
  A 0.91 0.91 0.0 0 1 99.25 40.98
  L 99.25 87.71
  A 1.14 1.12 -68.3 0 0 99.59 88.52
  L 118.58 106.82
  A 0.76 0.75 66.4 0 0 119.10 107.03
  L 151.95 106.93
  A 1.40 1.39 67.3 0 1 152.97 107.35
  L 180.06 134.44
  Q 180.50 134.87 180.50 135.50
  L 180.50 203.02
  A 1.01 1.00 72.0 0 1 180.09 203.83
  C 171.73 210.06 184.23 219.36 188.14 211.14
  C 189.43 208.43 188.50 205.51 186.19 203.69"
/>
<path stroke="#888888" vector-effect="non-scaling-stroke" d="
  M 205.55 136.85
  C 205.10 135.14 204.12 134.90 203.11 133.70
  Q 202.75 133.28 202.76 132.72
  L 203.04 88.32
  A 0.63 0.62 -22.6 0 1 203.21 87.92
  L 214.16 76.97
  A 1.21 1.18 -23.4 0 0 214.50 76.14
  L 214.50 52.44
  A 1.00 1.00 0.0 0 1 214.90 51.64
  Q 218.57 48.87 217.30 45.04
  C 214.29 36.01 200.09 44.25 209.12 51.93
  A 1.10 1.10 0.0 0 1 209.52 52.78
  L 209.47 73.70
  Q 209.47 74.29 209.04 74.71
  L 198.56 85.03
  A 2.73 2.72 67.7 0 0 197.75 86.97
  L 197.75 133.05
  Q 197.75 133.68 197.27 134.08
  Q 193.12 137.54 195.65 141.84
  C 199.00 147.53 207.37 143.90 205.55 136.85"
/>
<path stroke="#888888" vector-effect="non-scaling-stroke" d="
  M 95.81 99.96
  C 91.46 95.55 87.09 90.44 82.45 86.44
  Q 82.09 86.12 82.08 85.65
  L 81.79 72.91
  Q 81.77 72.41 81.42 72.06
  L 72.07 62.65
  A 1.28 1.27 25.0 0 1 71.70 61.64
  C 72.78 49.90 56.07 55.03 61.31 63.45
  Q 63.14 66.37 67.45 65.90
  A 1.06 1.05 -25.7 0 1 68.32 66.20
  L 76.37 74.24
  Q 76.75 74.62 76.75 75.16
  L 76.75 87.73
  A 0.97 0.95 -67.8 0 0 77.03 88.41
  L 92.05 103.42
  Q 92.38 103.76 92.45 104.22
  C 92.65 105.61 92.67 107.20 93.17 108.38
  C 97.22 117.89 111.13 105.29 99.84 100.53
  Q 99.42 100.35 98.97 100.44
  Q 96.71 100.88 95.81 99.96"
/>
<path stroke="#888888" vector-effect="non-scaling-stroke" d="
  M 239.09 60.49
  C 233.74 54.07 224.58 63.75 232.13 69.15
  Q 232.61 69.49 232.57 70.07
  L 232.27 74.32
  Q 232.23 74.90 231.82 75.31
  L 224.19 82.93
  A 1.16 1.14 24.4 0 1 223.26 83.27
  C 210.61 82.23 217.20 100.08 225.73 92.92
  Q 227.83 91.15 227.28 87.44
  A 1.06 1.06 0.0 0 1 227.58 86.55
  L 237.14 76.98
  A 1.20 1.18 -22.8 0 0 237.49 76.14
  L 237.50 69.96
  Q 237.51 69.50 237.85 69.19
  Q 242.73 64.87 239.09 60.49"
/>
<path stroke="#888888" vector-effect="non-scaling-stroke" d="
  M 189.82 108.56
  C 191.84 104.62 188.63 99.71 183.94 100.54
  A 1.49 1.42 50.8 0 1 183.08 100.43
  C 177.93 98.03 178.08 86.13 184.42 85.18
  C 187.68 84.69 190.24 83.59 190.45 80.19
  C 190.96 72.22 178.25 71.51 179.05 81.23
  Q 179.09 81.76 178.72 82.14
  L 175.13 85.73
  Q 174.75 86.11 174.75 86.65
  L 174.75 99.05
  Q 174.75 99.58 175.12 99.95
  L 178.95 103.85
  Q 179.32 104.22 179.21 104.73
  C 177.78 111.64 186.92 114.22 189.82 108.56"
/>
<path stroke="#888888" vector-effect="non-scaling-stroke" d="
  M 52.29 90.04
  Q 69.54 107.66 87.08 124.88
  C 89.84 127.59 89.34 127.11 93.21 127.10
  Q 118.28 127.05 143.45 127.34
  Q 143.97 127.35 144.34 127.71
  L 163.29 146.67
  A 3.02 2.99 -67.9 0 1 164.18 148.81
  Q 164.18 166.41 164.28 184.26
  C 164.29 185.54 163.62 186.09 162.60 186.67
  Q 162.17 186.91 161.95 187.33
  C 159.60 191.84 162.10 196.47 167.09 196.38
  C 172.53 196.29 174.09 189.12 169.67 185.86
  Q 169.25 185.54 169.25 185.02
  L 169.25 145.75
  A 1.50 1.50 0.0 0 0 168.81 144.69
  L 146.42 122.29
  Q 146.13 122.00 145.72 122.00
  L 92.26 122.00
  A 2.78 2.75 67.1 0 1 90.32 121.20
  L 55.83 86.70
  Q 55.49 86.36 55.56 85.89
  C 56.96 75.88 42.51 76.92 44.56 85.67
  Q 45.68 90.47 51.17 89.67
  A 1.31 1.28 -26.2 0 1 52.29 90.04"
/>
<path stroke="#888888" vector-effect="non-scaling-stroke" d="
  M 251.81 81.19
  C 247.40 77.61 241.53 81.34 242.55 86.88
  A 1.23 1.21 -28.2 0 1 242.21 87.97
  L 216.09 113.85
  A 1.98 1.97 67.8 0 0 215.50 115.26
  L 215.50 147.42
  A 3.65 3.65 0.0 0 1 214.42 150.01
  L 197.44 166.91
  Q 197.00 167.35 197.00 167.98
  L 197.00 219.50
  A 0.97 0.97 0.0 0 1 196.63 220.26
  C 187.44 227.40 202.07 236.25 205.05 226.98
  Q 206.26 223.18 202.32 220.33
  A 0.83 0.80 -72.6 0 1 201.99 219.67
  L 202.17 170.18
  Q 202.17 169.45 202.69 168.94
  L 220.21 151.41
  Q 220.50 151.13 220.50 150.72
  L 220.50 117.25
  A 1.52 1.50 67.9 0 1 220.94 116.18
  L 245.69 91.43
  Q 246.09 91.03 246.65 91.01
  C 247.86 90.94 248.91 91.08 249.95 90.69
  C 253.76 89.26 255.49 84.17 251.81 81.19"
/>
<path stroke="#888888" vector-effect="non-scaling-stroke" d="
  M 79.94 141.60
  C 70.03 131.50 59.83 121.68 49.80 111.69
  C 48.56 110.45 48.55 109.39 48.79 107.77
  A 1.72 1.71 -53.2 0 0 48.66 106.83
  C 45.41 99.49 35.49 103.06 37.82 110.41
  Q 39.27 115.00 44.27 113.79
  Q 44.79 113.66 45.16 114.04
  L 78.09 146.96
  Q 78.38 147.25 78.78 147.25
  L 125.49 147.25
  A 1.03 1.03 0.0 0 1 126.29 147.63
  C 129.07 151.01 133.94 151.46 136.15 147.40
  C 139.68 140.94 130.56 135.48 126.16 141.87
  A 1.00 0.97 16.6 0 1 125.34 142.30
  L 80.72 141.93
  A 1.15 1.12 -21.4 0 1 79.94 141.60"
/>
<path stroke="#888888" vector-effect="non-scaling-stroke" d="
  M 234.54 150.03
  C 238.74 151.64 242.45 147.48 241.93 143.49
  C 241.71 141.80 240.49 140.84 239.33 139.70
  A 1.17 1.16 -67.0 0 1 238.98 138.82
  C 239.16 135.26 237.79 133.91 240.58 131.08
  Q 248.88 122.66 257.31 114.35
  Q 257.67 114.00 258.17 114.06
  C 262.79 114.69 267.43 110.32 264.67 105.85
  C 261.58 100.83 253.85 102.24 254.13 108.73
  Q 254.20 110.46 253.44 111.18
  Q 243.59 120.55 234.12 130.33
  A 1.31 1.27 -23.5 0 0 233.75 131.23
  L 233.75 138.74
  A 1.05 1.04 69.4 0 1 233.40 139.52
  C 229.72 142.83 229.60 148.13 234.54 150.03"
/>
<path stroke="#888888" vector-effect="non-scaling-stroke" d="
  M 255.01 159.22
  L 234.47 159.30
  Q 233.86 159.31 233.44 159.73
  L 215.51 177.68
  A 0.97 0.95 67.8 0 0 215.23 178.36
  L 215.57 230.48
  A 1.36 1.34 -22.5 0 1 215.15 231.48
  C 204.57 241.44 225.10 248.30 223.36 234.94
  Q 223.30 234.41 222.89 234.06
  C 219.67 231.30 220.23 228.94 220.24 225.07
  Q 220.30 202.90 220.58 180.67
  Q 220.58 180.16 220.93 179.80
  Q 226.93 173.50 233.22 167.46
  C 235.02 165.74 235.64 164.51 238.38 164.51
  Q 249.14 164.51 259.99 164.49
  Q 260.52 164.49 260.52 163.97
  Q 260.52 152.61 260.49 141.24
  Q 260.48 139.38 263.08 137.52
  Q 263.49 137.23 263.99 137.28
  Q 268.98 137.76 270.62 133.84
  C 274.45 124.70 258.20 122.31 259.87 132.83
  A 1.14 1.13 -27.6 0 1 259.56 133.80
  L 255.78 137.60
  A 0.97 0.95 67.8 0 0 255.50 138.28
  L 255.50 158.73
  Q 255.50 159.22 255.01 159.22"
/>
<path stroke="#888888" vector-effect="non-scaling-stroke" d="
  M 36.09 138.44
  C 46.09 128.73 27.57 122.40 27.65 133.47
  C 27.66 135.66 28.84 136.81 30.34 138.25
  Q 30.75 138.64 30.75 139.22
  L 30.75 156.47
  Q 30.75 157.09 31.18 157.53
  L 46.24 172.68
  Q 46.62 173.06 46.56 173.60
  C 45.82 180.58 54.10 183.71 57.48 177.50
  C 59.77 173.28 55.39 168.92 50.77 169.58
  A 1.01 0.99 -26.7 0 1 49.93 169.31
  L 36.10 155.47
  A 1.16 1.15 -68.0 0 1 35.75 154.64
  L 35.75 139.25
  A 1.17 1.13 -23.2 0 1 36.09 138.44"
/>
<path stroke="#888888" vector-effect="non-scaling-stroke" d="
  M 106.72 208.62
  C 115.70 213.95 119.85 197.33 108.46 198.27
  A 1.14 1.13 65.2 0 1 107.57 197.94
  L 60.69 151.07
  Q 60.32 150.70 60.34 150.18
  Q 60.56 144.19 55.64 143.30
  C 47.05 141.73 46.47 155.59 56.26 154.46
  A 1.02 1.01 -25.5 0 1 57.11 154.76
  L 104.01 201.66
  Q 104.38 202.03 104.31 202.55
  Q 103.69 206.83 106.72 208.62"
/>
<path stroke="#888888" vector-effect="non-scaling-stroke" d="
  M 102.54 159.43
  A 1.41 1.40 -19.1 0 1 101.44 158.90
  C 95.47 151.36 86.36 161.83 93.69 166.58
  Q 97.82 169.25 101.68 164.96
  A 1.38 1.37 20.7 0 1 102.71 164.50
  L 110.50 164.50
  A 1.00 1.00 0.0 0 1 111.50 165.50
  L 111.50 173.50
  A 0.95 0.94 73.4 0 1 111.08 174.29
  C 107.50 176.65 107.34 180.92 110.54 183.61
  C 116.09 188.29 123.37 179.69 117.21 174.57
  A 1.97 1.96 19.9 0 1 116.50 173.06
  L 116.50 159.97
  Q 116.50 159.45 115.98 159.45
  L 102.54 159.43"
/>
<path stroke="#888888" vector-effect="non-scaling-stroke" d="
  M 142.86 257.22
  L 132.51 257.31
  Q 131.84 257.32 132.31 256.84
  L 150.84 238.23
  A 1.14 1.10 -23.6 0 0 151.16 237.45
  L 150.98 168.10
  Q 150.98 167.49 151.42 167.09
  Q 156.23 162.67 152.66 158.35
  C 147.58 152.20 137.98 161.13 145.58 166.90
  A 1.09 1.06 -71.8 0 1 146.00 167.76
  L 146.00 234.49
  A 2.78 2.75 -22.9 0 1 145.20 236.43
  L 119.81 261.81
  Q 119.35 262.27 120.00 262.27
  L 142.73 262.24
  A 0.91 0.90 -18.0 0 1 143.46 262.61
  C 148.09 268.90 156.54 263.61 153.62 257.54
  C 151.60 253.33 146.51 253.08 143.65 256.82
  Q 143.35 257.22 142.86 257.22"
/>
<path stroke="#888888" vector-effect="non-scaling-stroke" d="
  M 132.89 162.36
  C 126.62 160.21 122.98 168.10 128.40 172.78
  A 1.15 1.13 -70.0 0 1 128.80 173.65
  L 128.43 229.72
  Q 128.42 230.20 128.08 230.54
  L 114.32 244.31
  A 1.08 1.05 25.7 0 1 113.45 244.60
  Q 107.96 243.86 106.80 248.51
  C 104.60 257.32 119.37 258.61 117.79 248.56
  A 0.96 0.94 -27.6 0 1 118.06 247.73
  L 133.39 232.74
  Q 133.75 232.39 133.75 231.89
  L 133.75 173.51
  Q 133.75 172.99 134.15 172.66
  C 138.17 169.39 137.88 164.07 132.89 162.36"
/>
<path stroke="#888888" vector-effect="non-scaling-stroke" d="
  M 254.00 175.33
  C 250.24 178.10 246.09 176.08 241.59 176.61
  C 237.89 177.05 234.38 181.62 232.09 184.33
  A 1.45 1.42 65.5 0 0 231.75 185.26
  L 231.75 209.00
  A 1.50 1.50 0.0 0 0 232.19 210.06
  L 235.92 213.80
  A 1.16 1.15 23.4 0 1 236.26 214.64
  C 235.93 225.71 249.24 222.41 247.26 214.52
  C 245.78 208.61 239.79 212.41 237.46 208.19
  C 235.78 205.16 236.75 193.57 236.75 189.61
  C 236.75 185.25 240.81 181.75 245.07 181.74
  Q 248.60 181.74 252.16 181.76
  Q 252.66 181.76 252.97 182.15
  Q 256.83 186.99 261.30 183.70
  C 267.08 179.43 261.37 169.88 254.00 175.33"
/>
<path stroke="#888888" vector-effect="non-scaling-stroke" d="
  M 79.08 198.67
  C 77.39 197.04 77.05 195.95 77.59 193.68
  A 1.16 1.14 -54.2 0 0 77.46 192.82
  Q 74.39 187.67 69.51 189.80
  C 63.18 192.57 66.58 201.41 73.50 200.42
  A 0.88 0.87 63.3 0 1 74.24 200.67
  L 104.05 230.46
  A 0.79 0.78 45.0 0 1 104.06 231.57
  L 97.43 238.19
  A 1.16 1.14 24.9 0 1 96.51 238.52
  C 92.35 238.13 88.63 240.91 89.33 245.24
  C 90.45 252.27 102.03 250.87 100.36 242.92
  A 0.99 0.98 -28.7 0 1 100.63 242.02
  L 111.25 231.42
  Q 111.58 231.08 111.25 230.74
  Q 95.39 214.46 79.08 198.67"
/>
<path stroke="#888888" vector-effect="non-scaling-stroke" d="
  M 68.53 223.69
  C 69.75 224.84 69.60 225.47 69.67 226.98
  C 70.12 236.86 84.72 232.27 80.16 224.06
  Q 78.45 220.98 74.11 221.56
  A 1.20 1.20 0.0 0 1 73.10 221.22
  L 54.69 202.82
  A 1.00 0.98 27.8 0 1 54.42 201.97
  C 55.55 195.02 46.76 192.09 43.60 198.29
  C 41.40 202.61 45.63 206.73 50.31 206.14
  A 1.00 0.98 -24.7 0 1 51.15 206.44
  Q 59.66 215.28 68.53 223.69"
/>
<path stroke="#888888" vector-effect="non-scaling-stroke" d="
  M 168.95 226.32
  L 190.31 247.68
  A 0.99 0.98 -64.1 0 1 190.59 248.50
  C 190.01 253.07 192.97 256.33 197.58 255.43
  C 204.48 254.08 203.01 243.64 194.92 244.49
  A 1.11 1.08 64.2 0 1 194.04 244.17
  L 163.70 213.81
  A 0.26 0.26 0.0 0 0 163.25 213.99
  L 163.25 254.05
  A 1.10 1.09 -18.1 0 1 162.79 254.94
  C 156.66 259.41 162.26 268.30 168.69 264.66
  C 171.76 262.93 172.58 258.49 169.81 255.83
  C 167.90 253.99 168.35 253.42 168.30 251.00
  Q 168.06 238.74 168.54 226.48
  Q 168.56 225.94 168.95 226.32"
/>
<path stroke="#888888" vector-effect="non-scaling-stroke" d="
  M 125.5975 29.1396
  A 2.16 1.93 36.0 0 0 124.9844 26.3086
  A 2.16 1.93 36.0 0 0 122.1025 26.6004
  A 2.16 1.93 36.0 0 0 122.7156 29.4314
  A 2.16 1.93 36.0 0 0 125.5975 29.1396"
/>
<path stroke="#888888" vector-effect="non-scaling-stroke" d="
  M 140.71 42.62
  A 2.11 2.11 0.0 0 0 138.60 40.51
  A 2.11 2.11 0.0 0 0 136.49 42.62
  A 2.11 2.11 0.0 0 0 138.60 44.73
  A 2.11 2.11 0.0 0 0 140.71 42.62"
/>
<path stroke="#888888" vector-effect="non-scaling-stroke" d="
  M 154.73 27.87
  A 2.09 2.09 0.0 0 0 152.64 25.78
  A 2.09 2.09 0.0 0 0 150.55 27.87
  A 2.09 2.09 0.0 0 0 152.64 29.96
  A 2.09 2.09 0.0 0 0 154.73 27.87"
/>
<path stroke="#888888" vector-effect="non-scaling-stroke" d="
  M 133.44 64.08
  A 2.15 2.15 0.0 0 0 131.29 61.93
  A 2.15 2.15 0.0 0 0 129.14 64.08
  A 2.15 2.15 0.0 0 0 131.29 66.23
  A 2.15 2.15 0.0 0 0 133.44 64.08"
/>
<path stroke="#888888" vector-effect="non-scaling-stroke" d="
  M 190.97 35.36
  A 2.09 2.09 0.0 0 0 188.88 33.27
  A 2.09 2.09 0.0 0 0 186.79 35.36
  A 2.09 2.09 0.0 0 0 188.88 37.45
  A 2.09 2.09 0.0 0 0 190.97 35.36"
/>
<path stroke="#888888" vector-effect="non-scaling-stroke" d="
  M 133.43 81.33
  A 2.12 2.12 0.0 0 0 131.31 79.21
  A 2.12 2.12 0.0 0 0 129.19 81.33
  A 2.12 2.12 0.0 0 0 131.31 83.45
  A 2.12 2.12 0.0 0 0 133.43 81.33"
/>
<path stroke="#888888" vector-effect="non-scaling-stroke" d="
  M 103.90 35.35
  A 2.09 2.09 0.0 0 0 101.81 33.26
  A 2.09 2.09 0.0 0 0 99.72 35.35
  A 2.09 2.09 0.0 0 0 101.81 37.44
  A 2.09 2.09 0.0 0 0 103.90 35.35"
/>
<path stroke="#888888" vector-effect="non-scaling-stroke" d="
  M 185.18 208.53
  A 2.10 2.10 0.0 0 0 183.08 206.43
  A 2.10 2.10 0.0 0 0 180.98 208.53
  A 2.10 2.10 0.0 0 0 183.08 210.63
  A 2.10 2.10 0.0 0 0 185.18 208.53"
/>
<path stroke="#888888" vector-effect="non-scaling-stroke" d="
  M 213.96 46.87
  A 2.07 2.07 0.0 0 0 211.89 44.80
  A 2.07 2.07 0.0 0 0 209.82 46.87
  A 2.07 2.07 0.0 0 0 211.89 48.94
  A 2.07 2.07 0.0 0 0 213.96 46.87"
/>
<path stroke="#888888" vector-effect="non-scaling-stroke" d="
  M 202.44 138.82
  A 2.06 2.06 0.0 0 0 200.38 136.76
  A 2.06 2.06 0.0 0 0 198.32 138.82
  A 2.06 2.06 0.0 0 0 200.38 140.88
  A 2.06 2.06 0.0 0 0 202.44 138.82"
/>
<path stroke="#888888" vector-effect="non-scaling-stroke" d="
  M 68.35 60.40
  A 2.11 2.11 0.0 0 0 66.24 58.29
  A 2.11 2.11 0.0 0 0 64.13 60.40
  A 2.11 2.11 0.0 0 0 66.24 62.51
  A 2.11 2.11 0.0 0 0 68.35 60.40"
/>
<path stroke="#888888" vector-effect="non-scaling-stroke" d="
  M 100.32 105.99
  A 2.07 2.07 0.0 0 0 98.25 103.92
  A 2.07 2.07 0.0 0 0 96.18 105.99
  A 2.07 2.07 0.0 0 0 98.25 108.06
  A 2.07 2.07 0.0 0 0 100.32 105.99"
/>
<path stroke="#888888" vector-effect="non-scaling-stroke" d="
  M 237.00 64.22
  A 2.06 2.06 0.0 0 0 234.94 62.16
  A 2.06 2.06 0.0 0 0 232.88 64.22
  A 2.06 2.06 0.0 0 0 234.94 66.28
  A 2.06 2.06 0.0 0 0 237.00 64.22"
/>
<path stroke="#888888" vector-effect="non-scaling-stroke" d="
  M 223.93 88.72
  A 2.12 2.12 0.0 0 0 221.81 86.60
  A 2.12 2.12 0.0 0 0 219.69 88.72
  A 2.12 2.12 0.0 0 0 221.81 90.84
  A 2.12 2.12 0.0 0 0 223.93 88.72"
/>
<path stroke="#888888" vector-effect="non-scaling-stroke" d="
  M 186.77 79.71
  A 2.06 2.06 0.0 0 0 184.71 77.65
  A 2.06 2.06 0.0 0 0 182.65 79.71
  A 2.06 2.06 0.0 0 0 184.71 81.77
  A 2.06 2.06 0.0 0 0 186.77 79.71"
/>
<path stroke="#888888" vector-effect="non-scaling-stroke" d="
  M 186.80 106.04
  A 2.10 2.10 0.0 0 0 184.70 103.94
  A 2.10 2.10 0.0 0 0 182.60 106.04
  A 2.10 2.10 0.0 0 0 184.70 108.14
  A 2.10 2.10 0.0 0 0 186.80 106.04"
/>
<path stroke="#888888" vector-effect="non-scaling-stroke" d="
  M 52.14 84.35
  A 2.08 2.08 0.0 0 0 50.06 82.27
  A 2.08 2.08 0.0 0 0 47.98 84.35
  A 2.08 2.08 0.0 0 0 50.06 86.43
  A 2.08 2.08 0.0 0 0 52.14 84.35"
/>
<path stroke="#888888" vector-effect="non-scaling-stroke" d="
  M 168.77 190.66
  A 2.13 2.13 0.0 0 0 166.64 188.53
  A 2.13 2.13 0.0 0 0 164.51 190.66
  A 2.13 2.13 0.0 0 0 166.64 192.79
  A 2.13 2.13 0.0 0 0 168.77 190.66"
/>
<path stroke="#888888" vector-effect="non-scaling-stroke" d="
  M 250.20 85.45
  A 2.07 2.07 0.0 0 0 248.13 83.38
  A 2.07 2.07 0.0 0 0 246.06 85.45
  A 2.07 2.07 0.0 0 0 248.13 87.52
  A 2.07 2.07 0.0 0 0 250.20 85.45"
/>
<path stroke="#888888" vector-effect="non-scaling-stroke" d="
  M 201.55 225.18
  A 2.06 2.06 0.0 0 0 199.49 223.12
  A 2.06 2.06 0.0 0 0 197.43 225.18
  A 2.06 2.06 0.0 0 0 199.49 227.24
  A 2.06 2.06 0.0 0 0 201.55 225.18"
/>
<path stroke="#888888" vector-effect="non-scaling-stroke" d="
  M 45.25 108.52
  A 2.09 2.09 0.0 0 0 43.16 106.43
  A 2.09 2.09 0.0 0 0 41.07 108.52
  A 2.09 2.09 0.0 0 0 43.16 110.61
  A 2.09 2.09 0.0 0 0 45.25 108.52"
/>
<path stroke="#888888" vector-effect="non-scaling-stroke" d="
  M 133.17 144.65
  A 2.01 2.01 0.0 0 0 131.16 142.64
  A 2.01 2.01 0.0 0 0 129.15 144.65
  A 2.01 2.01 0.0 0 0 131.16 146.66
  A 2.01 2.01 0.0 0 0 133.17 144.65"
/>
<path stroke="#888888" vector-effect="non-scaling-stroke" d="
  M 261.59 108.53
  A 2.05 2.05 0.0 0 0 259.54 106.48
  A 2.05 2.05 0.0 0 0 257.49 108.53
  A 2.05 2.05 0.0 0 0 259.54 110.58
  A 2.05 2.05 0.0 0 0 261.59 108.53"
/>
<path stroke="#888888" vector-effect="non-scaling-stroke" d="
  M 238.38 144.64
  A 2.06 2.06 0.0 0 0 236.32 142.58
  A 2.06 2.06 0.0 0 0 234.26 144.64
  A 2.06 2.06 0.0 0 0 236.32 146.70
  A 2.06 2.06 0.0 0 0 238.38 144.64"
/>
<path stroke="#888888" vector-effect="non-scaling-stroke" d="
  M 267.51 131.54
  A 2.09 2.09 0.0 0 0 265.42 129.45
  A 2.09 2.09 0.0 0 0 263.33 131.54
  A 2.09 2.09 0.0 0 0 265.42 133.63
  A 2.09 2.09 0.0 0 0 267.51 131.54"
/>
<path stroke="#888888" vector-effect="non-scaling-stroke" d="
  M 219.94 236.73
  A 2.06 2.06 0.0 0 0 217.88 234.67
  A 2.06 2.06 0.0 0 0 215.82 236.73
  A 2.06 2.06 0.0 0 0 217.88 238.79
  A 2.06 2.06 0.0 0 0 219.94 236.73"
/>
<path stroke="#888888" vector-effect="non-scaling-stroke" d="
  M 35.35 133.27
  A 2.05 2.05 0.0 0 0 33.30 131.22
  A 2.05 2.05 0.0 0 0 31.25 133.27
  A 2.05 2.05 0.0 0 0 33.30 135.32
  A 2.05 2.05 0.0 0 0 35.35 133.27"
/>
<path stroke="#888888" vector-effect="non-scaling-stroke" d="
  M 54.27 175.14
  A 2.10 2.10 0.0 0 0 52.17 173.04
  A 2.10 2.10 0.0 0 0 50.07 175.14
  A 2.10 2.10 0.0 0 0 52.17 177.24
  A 2.10 2.10 0.0 0 0 54.27 175.14"
/>
<path stroke="#888888" vector-effect="non-scaling-stroke" d="
  M 56.76 148.85
  A 2.12 2.12 0.0 0 0 54.64 146.73
  A 2.12 2.12 0.0 0 0 52.52 148.85
  A 2.12 2.12 0.0 0 0 54.64 150.97
  A 2.12 2.12 0.0 0 0 56.76 148.85"
/>
<path stroke="#888888" vector-effect="non-scaling-stroke" d="
  M 111.83 203.89
  A 2.03 2.03 0.0 0 0 109.80 201.86
  A 2.03 2.03 0.0 0 0 107.77 203.89
  A 2.03 2.03 0.0 0 0 109.80 205.92
  A 2.03 2.03 0.0 0 0 111.83 203.89"
/>
<path stroke="#888888" vector-effect="non-scaling-stroke" d="
  M 98.69 161.92
  A 2.00 2.00 0.0 0 0 96.69 159.92
  A 2.00 2.00 0.0 0 0 94.69 161.92
  A 2.00 2.00 0.0 0 0 96.69 163.92
  A 2.00 2.00 0.0 0 0 98.69 161.92"
/>
<path stroke="#888888" vector-effect="non-scaling-stroke" d="
  M 116.01 179.14
  A 2.09 2.09 0.0 0 0 113.92 177.05
  A 2.09 2.09 0.0 0 0 111.83 179.14
  A 2.09 2.09 0.0 0 0 113.92 181.23
  A 2.09 2.09 0.0 0 0 116.01 179.14"
/>
<path stroke="#888888" vector-effect="non-scaling-stroke" d="
  M 148.9327 164.2530
  A 2.21 1.99 79.5 0 0 150.4867 161.7174
  A 2.21 1.99 79.5 0 0 148.1273 159.9070
  A 2.21 1.99 79.5 0 0 146.5733 162.4426
  A 2.21 1.99 79.5 0 0 148.9327 164.2530"
/>
<path stroke="#888888" vector-effect="non-scaling-stroke" d="
  M 150.46 259.84
  A 2.03 2.03 0.0 0 0 148.43 257.81
  A 2.03 2.03 0.0 0 0 146.40 259.84
  A 2.03 2.03 0.0 0 0 148.43 261.87
  A 2.03 2.03 0.0 0 0 150.46 259.84"
/>
<path stroke="#888888" vector-effect="non-scaling-stroke" d="
  M 133.33 167.81
  A 2.08 2.08 0.0 0 0 131.25 165.73
  A 2.08 2.08 0.0 0 0 129.17 167.81
  A 2.08 2.08 0.0 0 0 131.25 169.89
  A 2.08 2.08 0.0 0 0 133.33 167.81"
/>
<path stroke="#888888" vector-effect="non-scaling-stroke" d="
  M 114.35 249.96
  A 2.06 2.06 0.0 0 0 112.29 247.90
  A 2.06 2.06 0.0 0 0 110.23 249.96
  A 2.06 2.06 0.0 0 0 112.29 252.02
  A 2.06 2.06 0.0 0 0 114.35 249.96"
/>
<path stroke="#888888" vector-effect="non-scaling-stroke" d="
  M 260.00 179.27
  A 2.08 2.08 0.0 0 0 257.92 177.19
  A 2.08 2.08 0.0 0 0 255.84 179.27
  A 2.08 2.08 0.0 0 0 257.92 181.35
  A 2.08 2.08 0.0 0 0 260.00 179.27"
/>
<path stroke="#888888" vector-effect="non-scaling-stroke" d="
  M 243.78 216.12
  A 2.11 2.11 0.0 0 0 241.67 214.01
  A 2.11 2.11 0.0 0 0 239.56 216.12
  A 2.11 2.11 0.0 0 0 241.67 218.23
  A 2.11 2.11 0.0 0 0 243.78 216.12"
/>
<path stroke="#888888" vector-effect="non-scaling-stroke" d="
  M 74.09 194.91
  A 2.11 2.11 0.0 0 0 71.98 192.80
  A 2.11 2.11 0.0 0 0 69.87 194.91
  A 2.11 2.11 0.0 0 0 71.98 197.02
  A 2.11 2.11 0.0 0 0 74.09 194.91"
/>
<path stroke="#888888" vector-effect="non-scaling-stroke" d="
  M 97.18 244.20
  A 2.11 2.11 0.0 0 0 95.07 242.09
  A 2.11 2.11 0.0 0 0 92.96 244.20
  A 2.11 2.11 0.0 0 0 95.07 246.31
  A 2.11 2.11 0.0 0 0 97.18 244.20"
/>
<path stroke="#888888" vector-effect="non-scaling-stroke" d="
  M 50.99 200.63
  A 2.09 2.09 0.0 0 0 48.90 198.54
  A 2.09 2.09 0.0 0 0 46.81 200.63
  A 2.09 2.09 0.0 0 0 48.90 202.72
  A 2.09 2.09 0.0 0 0 50.99 200.63"
/>
<path stroke="#888888" vector-effect="non-scaling-stroke" d="
  M 77.30 226.89
  A 2.11 2.11 0.0 0 0 75.19 224.78
  A 2.11 2.11 0.0 0 0 73.08 226.89
  A 2.11 2.11 0.0 0 0 75.19 229.00
  A 2.11 2.11 0.0 0 0 77.30 226.89"
/>
<path stroke="#888888" vector-effect="non-scaling-stroke" d="
  M 198.26 249.98
  A 2.03 2.03 0.0 0 0 196.23 247.95
  A 2.03 2.03 0.0 0 0 194.20 249.98
  A 2.03 2.03 0.0 0 0 196.23 252.01
  A 2.03 2.03 0.0 0 0 198.26 249.98"
/>
<path stroke="#888888" vector-effect="non-scaling-stroke" d="
  M 167.85 259.76
  A 2.05 2.05 0.0 0 0 165.80 257.71
  A 2.05 2.05 0.0 0 0 163.75 259.76
  A 2.05 2.05 0.0 0 0 165.80 261.81
  A 2.05 2.05 0.0 0 0 167.85 259.76"
/>
</g>
<path fill="#111111" d="
  M 0.00 0.00
  L 282.00 0.00
  L 282.00 276.00
  L 0.00 276.00
  L 0.00 0.00
  Z
  M 132.98 41.18
  C 133.07 42.93 132.78 44.03 133.72 45.50
  C 136.92 50.52 144.11 48.47 144.23 42.67
  C 144.30 38.69 140.91 36.70 137.23 37.04
  A 1.06 1.04 -24.9 0 1 136.41 36.75
  L 129.71 30.17
  Q 129.35 29.81 129.42 29.30
  C 130.53 22.06 121.01 19.31 118.43 25.88
  C 116.69 30.32 120.87 33.86 125.29 33.41
  Q 125.77 33.36 126.11 33.71
  L 132.60 40.32
  Q 132.95 40.68 132.98 41.18
  Z
  M 135.90 67.28
  A 1.71 1.71 0.0 0 1 137.30 66.55
  L 154.90 66.50
  A 1.16 1.16 0.0 0 0 155.72 66.16
  L 174.69 47.18
  Q 175.12 46.76 174.70 46.33
  Q 166.94 38.50 159.10 30.75
  C 157.53 29.19 158.73 27.45 157.84 25.67
  C 154.20 18.38 143.65 23.78 147.82 30.93
  Q 149.63 34.05 153.95 33.40
  A 1.02 1.01 63.3 0 1 154.81 33.69
  L 167.51 46.39
  Q 167.90 46.77 167.51 47.15
  L 153.54 61.06
  A 1.51 1.47 -66.9 0 1 152.49 61.50
  L 137.00 61.50
  Q 136.53 61.50 136.23 61.14
  Q 132.26 56.38 128.00 59.50
  C 120.68 64.86 130.96 74.38 135.90 67.28
  Z
  M 136.35 78.47
  C 126.34 68.62 120.58 87.39 131.80 87.07
  C 134.43 87.00 135.80 83.87 137.50 83.78
  Q 144.36 83.42 160.22 84.02
  Q 160.77 84.04 161.16 83.66
  L 190.95 54.23
  A 0.99 0.96 -22.5 0 0 191.25 53.53
  L 191.25 41.03
  A 1.02 1.01 68.5 0 1 191.57 40.29
  L 193.74 38.25
  Q 194.11 37.90 194.24 37.40
  C 195.91 31.10 188.05 26.53 184.41 31.69
  Q 181.12 36.34 185.88 40.21
  A 1.01 1.00 -70.7 0 1 186.25 40.99
  L 186.25 51.20
  A 0.97 0.95 67.8 0 1 185.97 51.88
  L 159.20 78.34
  A 1.40 1.40 0.0 0 1 158.21 78.75
  L 137.03 78.75
  Q 136.63 78.75 136.35 78.47
  Z
  M 186.19 203.69
  Q 185.49 203.13 185.49 202.23
  L 185.60 133.32
  Q 185.60 132.77 185.22 132.38
  L 155.08 102.11
  Q 154.72 101.75 154.21 101.75
  L 121.21 101.75
  A 1.52 1.51 -22.6 0 1 120.15 101.32
  L 104.87 86.37
  Q 104.57 86.09 104.57 85.67
  L 104.33 41.07
  Q 104.32 40.55 104.69 40.19
  L 106.58 38.29
  Q 106.93 37.95 107.04 37.48
  Q 108.08 33.20 105.32 30.98
  C 99.14 26.00 92.10 35.66 98.84 40.22
  A 0.91 0.91 0.0 0 1 99.25 40.98
  L 99.25 87.71
  A 1.14 1.12 -68.3 0 0 99.59 88.52
  L 118.58 106.82
  A 0.76 0.75 66.4 0 0 119.10 107.03
  L 151.95 106.93
  A 1.40 1.39 67.3 0 1 152.97 107.35
  L 180.06 134.44
  Q 180.50 134.87 180.50 135.50
  L 180.50 203.02
  A 1.01 1.00 72.0 0 1 180.09 203.83
  C 171.73 210.06 184.23 219.36 188.14 211.14
  C 189.43 208.43 188.50 205.51 186.19 203.69
  Z
  M 205.55 136.85
  C 205.10 135.14 204.12 134.90 203.11 133.70
  Q 202.75 133.28 202.76 132.72
  L 203.04 88.32
  A 0.63 0.62 -22.6 0 1 203.21 87.92
  L 214.16 76.97
  A 1.21 1.18 -23.4 0 0 214.50 76.14
  L 214.50 52.44
  A 1.00 1.00 0.0 0 1 214.90 51.64
  Q 218.57 48.87 217.30 45.04
  C 214.29 36.01 200.09 44.25 209.12 51.93
  A 1.10 1.10 0.0 0 1 209.52 52.78
  L 209.47 73.70
  Q 209.47 74.29 209.04 74.71
  L 198.56 85.03
  A 2.73 2.72 67.7 0 0 197.75 86.97
  L 197.75 133.05
  Q 197.75 133.68 197.27 134.08
  Q 193.12 137.54 195.65 141.84
  C 199.00 147.53 207.37 143.90 205.55 136.85
  Z
  M 95.81 99.96
  C 91.46 95.55 87.09 90.44 82.45 86.44
  Q 82.09 86.12 82.08 85.65
  L 81.79 72.91
  Q 81.77 72.41 81.42 72.06
  L 72.07 62.65
  A 1.28 1.27 25.0 0 1 71.70 61.64
  C 72.78 49.90 56.07 55.03 61.31 63.45
  Q 63.14 66.37 67.45 65.90
  A 1.06 1.05 -25.7 0 1 68.32 66.20
  L 76.37 74.24
  Q 76.75 74.62 76.75 75.16
  L 76.75 87.73
  A 0.97 0.95 -67.8 0 0 77.03 88.41
  L 92.05 103.42
  Q 92.38 103.76 92.45 104.22
  C 92.65 105.61 92.67 107.20 93.17 108.38
  C 97.22 117.89 111.13 105.29 99.84 100.53
  Q 99.42 100.35 98.97 100.44
  Q 96.71 100.88 95.81 99.96
  Z
  M 239.09 60.49
  C 233.74 54.07 224.58 63.75 232.13 69.15
  Q 232.61 69.49 232.57 70.07
  L 232.27 74.32
  Q 232.23 74.90 231.82 75.31
  L 224.19 82.93
  A 1.16 1.14 24.4 0 1 223.26 83.27
  C 210.61 82.23 217.20 100.08 225.73 92.92
  Q 227.83 91.15 227.28 87.44
  A 1.06 1.06 0.0 0 1 227.58 86.55
  L 237.14 76.98
  A 1.20 1.18 -22.8 0 0 237.49 76.14
  L 237.50 69.96
  Q 237.51 69.50 237.85 69.19
  Q 242.73 64.87 239.09 60.49
  Z
  M 189.82 108.56
  C 191.84 104.62 188.63 99.71 183.94 100.54
  A 1.49 1.42 50.8 0 1 183.08 100.43
  C 177.93 98.03 178.08 86.13 184.42 85.18
  C 187.68 84.69 190.24 83.59 190.45 80.19
  C 190.96 72.22 178.25 71.51 179.05 81.23
  Q 179.09 81.76 178.72 82.14
  L 175.13 85.73
  Q 174.75 86.11 174.75 86.65
  L 174.75 99.05
  Q 174.75 99.58 175.12 99.95
  L 178.95 103.85
  Q 179.32 104.22 179.21 104.73
  C 177.78 111.64 186.92 114.22 189.82 108.56
  Z
  M 52.29 90.04
  Q 69.54 107.66 87.08 124.88
  C 89.84 127.59 89.34 127.11 93.21 127.10
  Q 118.28 127.05 143.45 127.34
  Q 143.97 127.35 144.34 127.71
  L 163.29 146.67
  A 3.02 2.99 -67.9 0 1 164.18 148.81
  Q 164.18 166.41 164.28 184.26
  C 164.29 185.54 163.62 186.09 162.60 186.67
  Q 162.17 186.91 161.95 187.33
  C 159.60 191.84 162.10 196.47 167.09 196.38
  C 172.53 196.29 174.09 189.12 169.67 185.86
  Q 169.25 185.54 169.25 185.02
  L 169.25 145.75
  A 1.50 1.50 0.0 0 0 168.81 144.69
  L 146.42 122.29
  Q 146.13 122.00 145.72 122.00
  L 92.26 122.00
  A 2.78 2.75 67.1 0 1 90.32 121.20
  L 55.83 86.70
  Q 55.49 86.36 55.56 85.89
  C 56.96 75.88 42.51 76.92 44.56 85.67
  Q 45.68 90.47 51.17 89.67
  A 1.31 1.28 -26.2 0 1 52.29 90.04
  Z
  M 251.81 81.19
  C 247.40 77.61 241.53 81.34 242.55 86.88
  A 1.23 1.21 -28.2 0 1 242.21 87.97
  L 216.09 113.85
  A 1.98 1.97 67.8 0 0 215.50 115.26
  L 215.50 147.42
  A 3.65 3.65 0.0 0 1 214.42 150.01
  L 197.44 166.91
  Q 197.00 167.35 197.00 167.98
  L 197.00 219.50
  A 0.97 0.97 0.0 0 1 196.63 220.26
  C 187.44 227.40 202.07 236.25 205.05 226.98
  Q 206.26 223.18 202.32 220.33
  A 0.83 0.80 -72.6 0 1 201.99 219.67
  L 202.17 170.18
  Q 202.17 169.45 202.69 168.94
  L 220.21 151.41
  Q 220.50 151.13 220.50 150.72
  L 220.50 117.25
  A 1.52 1.50 67.9 0 1 220.94 116.18
  L 245.69 91.43
  Q 246.09 91.03 246.65 91.01
  C 247.86 90.94 248.91 91.08 249.95 90.69
  C 253.76 89.26 255.49 84.17 251.81 81.19
  Z
  M 79.94 141.60
  C 70.03 131.50 59.83 121.68 49.80 111.69
  C 48.56 110.45 48.55 109.39 48.79 107.77
  A 1.72 1.71 -53.2 0 0 48.66 106.83
  C 45.41 99.49 35.49 103.06 37.82 110.41
  Q 39.27 115.00 44.27 113.79
  Q 44.79 113.66 45.16 114.04
  L 78.09 146.96
  Q 78.38 147.25 78.78 147.25
  L 125.49 147.25
  A 1.03 1.03 0.0 0 1 126.29 147.63
  C 129.07 151.01 133.94 151.46 136.15 147.40
  C 139.68 140.94 130.56 135.48 126.16 141.87
  A 1.00 0.97 16.6 0 1 125.34 142.30
  L 80.72 141.93
  A 1.15 1.12 -21.4 0 1 79.94 141.60
  Z
  M 234.54 150.03
  C 238.74 151.64 242.45 147.48 241.93 143.49
  C 241.71 141.80 240.49 140.84 239.33 139.70
  A 1.17 1.16 -67.0 0 1 238.98 138.82
  C 239.16 135.26 237.79 133.91 240.58 131.08
  Q 248.88 122.66 257.31 114.35
  Q 257.67 114.00 258.17 114.06
  C 262.79 114.69 267.43 110.32 264.67 105.85
  C 261.58 100.83 253.85 102.24 254.13 108.73
  Q 254.20 110.46 253.44 111.18
  Q 243.59 120.55 234.12 130.33
  A 1.31 1.27 -23.5 0 0 233.75 131.23
  L 233.75 138.74
  A 1.05 1.04 69.4 0 1 233.40 139.52
  C 229.72 142.83 229.60 148.13 234.54 150.03
  Z
  M 255.01 159.22
  L 234.47 159.30
  Q 233.86 159.31 233.44 159.73
  L 215.51 177.68
  A 0.97 0.95 67.8 0 0 215.23 178.36
  L 215.57 230.48
  A 1.36 1.34 -22.5 0 1 215.15 231.48
  C 204.57 241.44 225.10 248.30 223.36 234.94
  Q 223.30 234.41 222.89 234.06
  C 219.67 231.30 220.23 228.94 220.24 225.07
  Q 220.30 202.90 220.58 180.67
  Q 220.58 180.16 220.93 179.80
  Q 226.93 173.50 233.22 167.46
  C 235.02 165.74 235.64 164.51 238.38 164.51
  Q 249.14 164.51 259.99 164.49
  Q 260.52 164.49 260.52 163.97
  Q 260.52 152.61 260.49 141.24
  Q 260.48 139.38 263.08 137.52
  Q 263.49 137.23 263.99 137.28
  Q 268.98 137.76 270.62 133.84
  C 274.45 124.70 258.20 122.31 259.87 132.83
  A 1.14 1.13 -27.6 0 1 259.56 133.80
  L 255.78 137.60
  A 0.97 0.95 67.8 0 0 255.50 138.28
  L 255.50 158.73
  Q 255.50 159.22 255.01 159.22
  Z
  M 36.09 138.44
  C 46.09 128.73 27.57 122.40 27.65 133.47
  C 27.66 135.66 28.84 136.81 30.34 138.25
  Q 30.75 138.64 30.75 139.22
  L 30.75 156.47
  Q 30.75 157.09 31.18 157.53
  L 46.24 172.68
  Q 46.62 173.06 46.56 173.60
  C 45.82 180.58 54.10 183.71 57.48 177.50
  C 59.77 173.28 55.39 168.92 50.77 169.58
  A 1.01 0.99 -26.7 0 1 49.93 169.31
  L 36.10 155.47
  A 1.16 1.15 -68.0 0 1 35.75 154.64
  L 35.75 139.25
  A 1.17 1.13 -23.2 0 1 36.09 138.44
  Z
  M 106.72 208.62
  C 115.70 213.95 119.85 197.33 108.46 198.27
  A 1.14 1.13 65.2 0 1 107.57 197.94
  L 60.69 151.07
  Q 60.32 150.70 60.34 150.18
  Q 60.56 144.19 55.64 143.30
  C 47.05 141.73 46.47 155.59 56.26 154.46
  A 1.02 1.01 -25.5 0 1 57.11 154.76
  L 104.01 201.66
  Q 104.38 202.03 104.31 202.55
  Q 103.69 206.83 106.72 208.62
  Z
  M 102.54 159.43
  A 1.41 1.40 -19.1 0 1 101.44 158.90
  C 95.47 151.36 86.36 161.83 93.69 166.58
  Q 97.82 169.25 101.68 164.96
  A 1.38 1.37 20.7 0 1 102.71 164.50
  L 110.50 164.50
  A 1.00 1.00 0.0 0 1 111.50 165.50
  L 111.50 173.50
  A 0.95 0.94 73.4 0 1 111.08 174.29
  C 107.50 176.65 107.34 180.92 110.54 183.61
  C 116.09 188.29 123.37 179.69 117.21 174.57
  A 1.97 1.96 19.9 0 1 116.50 173.06
  L 116.50 159.97
  Q 116.50 159.45 115.98 159.45
  L 102.54 159.43
  Z
  M 142.86 257.22
  L 132.51 257.31
  Q 131.84 257.32 132.31 256.84
  L 150.84 238.23
  A 1.14 1.10 -23.6 0 0 151.16 237.45
  L 150.98 168.10
  Q 150.98 167.49 151.42 167.09
  Q 156.23 162.67 152.66 158.35
  C 147.58 152.20 137.98 161.13 145.58 166.90
  A 1.09 1.06 -71.8 0 1 146.00 167.76
  L 146.00 234.49
  A 2.78 2.75 -22.9 0 1 145.20 236.43
  L 119.81 261.81
  Q 119.35 262.27 120.00 262.27
  L 142.73 262.24
  A 0.91 0.90 -18.0 0 1 143.46 262.61
  C 148.09 268.90 156.54 263.61 153.62 257.54
  C 151.60 253.33 146.51 253.08 143.65 256.82
  Q 143.35 257.22 142.86 257.22
  Z
  M 132.89 162.36
  C 126.62 160.21 122.98 168.10 128.40 172.78
  A 1.15 1.13 -70.0 0 1 128.80 173.65
  L 128.43 229.72
  Q 128.42 230.20 128.08 230.54
  L 114.32 244.31
  A 1.08 1.05 25.7 0 1 113.45 244.60
  Q 107.96 243.86 106.80 248.51
  C 104.60 257.32 119.37 258.61 117.79 248.56
  A 0.96 0.94 -27.6 0 1 118.06 247.73
  L 133.39 232.74
  Q 133.75 232.39 133.75 231.89
  L 133.75 173.51
  Q 133.75 172.99 134.15 172.66
  C 138.17 169.39 137.88 164.07 132.89 162.36
  Z
  M 254.00 175.33
  C 250.24 178.10 246.09 176.08 241.59 176.61
  C 237.89 177.05 234.38 181.62 232.09 184.33
  A 1.45 1.42 65.5 0 0 231.75 185.26
  L 231.75 209.00
  A 1.50 1.50 0.0 0 0 232.19 210.06
  L 235.92 213.80
  A 1.16 1.15 23.4 0 1 236.26 214.64
  C 235.93 225.71 249.24 222.41 247.26 214.52
  C 245.78 208.61 239.79 212.41 237.46 208.19
  C 235.78 205.16 236.75 193.57 236.75 189.61
  C 236.75 185.25 240.81 181.75 245.07 181.74
  Q 248.60 181.74 252.16 181.76
  Q 252.66 181.76 252.97 182.15
  Q 256.83 186.99 261.30 183.70
  C 267.08 179.43 261.37 169.88 254.00 175.33
  Z
  M 79.08 198.67
  C 77.39 197.04 77.05 195.95 77.59 193.68
  A 1.16 1.14 -54.2 0 0 77.46 192.82
  Q 74.39 187.67 69.51 189.80
  C 63.18 192.57 66.58 201.41 73.50 200.42
  A 0.88 0.87 63.3 0 1 74.24 200.67
  L 104.05 230.46
  A 0.79 0.78 45.0 0 1 104.06 231.57
  L 97.43 238.19
  A 1.16 1.14 24.9 0 1 96.51 238.52
  C 92.35 238.13 88.63 240.91 89.33 245.24
  C 90.45 252.27 102.03 250.87 100.36 242.92
  A 0.99 0.98 -28.7 0 1 100.63 242.02
  L 111.25 231.42
  Q 111.58 231.08 111.25 230.74
  Q 95.39 214.46 79.08 198.67
  Z
  M 68.53 223.69
  C 69.75 224.84 69.60 225.47 69.67 226.98
  C 70.12 236.86 84.72 232.27 80.16 224.06
  Q 78.45 220.98 74.11 221.56
  A 1.20 1.20 0.0 0 1 73.10 221.22
  L 54.69 202.82
  A 1.00 0.98 27.8 0 1 54.42 201.97
  C 55.55 195.02 46.76 192.09 43.60 198.29
  C 41.40 202.61 45.63 206.73 50.31 206.14
  A 1.00 0.98 -24.7 0 1 51.15 206.44
  Q 59.66 215.28 68.53 223.69
  Z
  M 168.95 226.32
  L 190.31 247.68
  A 0.99 0.98 -64.1 0 1 190.59 248.50
  C 190.01 253.07 192.97 256.33 197.58 255.43
  C 204.48 254.08 203.01 243.64 194.92 244.49
  A 1.11 1.08 64.2 0 1 194.04 244.17
  L 163.70 213.81
  A 0.26 0.26 0.0 0 0 163.25 213.99
  L 163.25 254.05
  A 1.10 1.09 -18.1 0 1 162.79 254.94
  C 156.66 259.41 162.26 268.30 168.69 264.66
  C 171.76 262.93 172.58 258.49 169.81 255.83
  C 167.90 253.99 168.35 253.42 168.30 251.00
  Q 168.06 238.74 168.54 226.48
  Q 168.56 225.94 168.95 226.32
  Z"
/>
<path fill="#ffffff" d="
  M 132.60 40.32
  L 126.11 33.71
  Q 125.77 33.36 125.29 33.41
  C 120.87 33.86 116.69 30.32 118.43 25.88
  C 121.01 19.31 130.53 22.06 129.42 29.30
  Q 129.35 29.81 129.71 30.17
  L 136.41 36.75
  A 1.06 1.04 -24.9 0 0 137.23 37.04
  C 140.91 36.70 144.30 38.69 144.23 42.67
  C 144.11 48.47 136.92 50.52 133.72 45.50
  C 132.78 44.03 133.07 42.93 132.98 41.18
  Q 132.95 40.68 132.60 40.32
  Z
  M 125.5975 29.1396
  A 2.16 1.93 36.0 0 0 124.9844 26.3086
  A 2.16 1.93 36.0 0 0 122.1025 26.6004
  A 2.16 1.93 36.0 0 0 122.7156 29.4314
  A 2.16 1.93 36.0 0 0 125.5975 29.1396
  Z
  M 140.71 42.62
  A 2.11 2.11 0.0 0 0 138.60 40.51
  A 2.11 2.11 0.0 0 0 136.49 42.62
  A 2.11 2.11 0.0 0 0 138.60 44.73
  A 2.11 2.11 0.0 0 0 140.71 42.62
  Z"
/>
<path fill="#ffffff" d="
  M 135.90 67.28
  C 130.96 74.38 120.68 64.86 128.00 59.50
  Q 132.26 56.38 136.23 61.14
  Q 136.53 61.50 137.00 61.50
  L 152.49 61.50
  A 1.51 1.47 -66.9 0 0 153.54 61.06
  L 167.51 47.15
  Q 167.90 46.77 167.51 46.39
  L 154.81 33.69
  A 1.02 1.01 63.3 0 0 153.95 33.40
  Q 149.63 34.05 147.82 30.93
  C 143.65 23.78 154.20 18.38 157.84 25.67
  C 158.73 27.45 157.53 29.19 159.10 30.75
  Q 166.94 38.50 174.70 46.33
  Q 175.12 46.76 174.69 47.18
  L 155.72 66.16
  A 1.16 1.16 0.0 0 1 154.90 66.50
  L 137.30 66.55
  A 1.71 1.71 0.0 0 0 135.90 67.28
  Z
  M 154.73 27.87
  A 2.09 2.09 0.0 0 0 152.64 25.78
  A 2.09 2.09 0.0 0 0 150.55 27.87
  A 2.09 2.09 0.0 0 0 152.64 29.96
  A 2.09 2.09 0.0 0 0 154.73 27.87
  Z
  M 133.44 64.08
  A 2.15 2.15 0.0 0 0 131.29 61.93
  A 2.15 2.15 0.0 0 0 129.14 64.08
  A 2.15 2.15 0.0 0 0 131.29 66.23
  A 2.15 2.15 0.0 0 0 133.44 64.08
  Z"
/>
<ellipse fill="#111111" cx="0.00" cy="0.00" transform="translate(123.85,27.87) rotate(36.0)" rx="2.16" ry="1.93"/>
<circle fill="#111111" cx="152.64" cy="27.87" r="2.09"/>
<path fill="#ffffff" d="
  M 137.03 78.75
  L 158.21 78.75
  A 1.40 1.40 0.0 0 0 159.20 78.34
  L 185.97 51.88
  A 0.97 0.95 67.8 0 0 186.25 51.20
  L 186.25 40.99
  A 1.01 1.00 -70.7 0 0 185.88 40.21
  Q 181.12 36.34 184.41 31.69
  C 188.05 26.53 195.91 31.10 194.24 37.40
  Q 194.11 37.90 193.74 38.25
  L 191.57 40.29
  A 1.02 1.01 68.5 0 0 191.25 41.03
  L 191.25 53.53
  A 0.99 0.96 -22.5 0 1 190.95 54.23
  L 161.16 83.66
  Q 160.77 84.04 160.22 84.02
  Q 144.36 83.42 137.50 83.78
  C 135.80 83.87 134.43 87.00 131.80 87.07
  C 120.58 87.39 126.34 68.62 136.35 78.47
  Q 136.63 78.75 137.03 78.75
  Z
  M 190.97 35.36
  A 2.09 2.09 0.0 0 0 188.88 33.27
  A 2.09 2.09 0.0 0 0 186.79 35.36
  A 2.09 2.09 0.0 0 0 188.88 37.45
  A 2.09 2.09 0.0 0 0 190.97 35.36
  Z
  M 133.43 81.33
  A 2.12 2.12 0.0 0 0 131.31 79.21
  A 2.12 2.12 0.0 0 0 129.19 81.33
  A 2.12 2.12 0.0 0 0 131.31 83.45
  A 2.12 2.12 0.0 0 0 133.43 81.33
  Z"
/>
<path fill="#ffffff" d="
  M 186.19 203.69
  C 188.50 205.51 189.43 208.43 188.14 211.14
  C 184.23 219.36 171.73 210.06 180.09 203.83
  A 1.01 1.00 72.0 0 0 180.50 203.02
  L 180.50 135.50
  Q 180.50 134.87 180.06 134.44
  L 152.97 107.35
  A 1.40 1.39 67.3 0 0 151.95 106.93
  L 119.10 107.03
  A 0.76 0.75 66.4 0 1 118.58 106.82
  L 99.59 88.52
  A 1.14 1.12 -68.3 0 1 99.25 87.71
  L 99.25 40.98
  A 0.91 0.91 0.0 0 0 98.84 40.22
  C 92.10 35.66 99.14 26.00 105.32 30.98
  Q 108.08 33.20 107.04 37.48
  Q 106.93 37.95 106.58 38.29
  L 104.69 40.19
  Q 104.32 40.55 104.33 41.07
  L 104.57 85.67
  Q 104.57 86.09 104.87 86.37
  L 120.15 101.32
  A 1.52 1.51 -22.6 0 0 121.21 101.75
  L 154.21 101.75
  Q 154.72 101.75 155.08 102.11
  L 185.22 132.38
  Q 185.60 132.77 185.60 133.32
  L 185.49 202.23
  Q 185.49 203.13 186.19 203.69
  Z
  M 103.90 35.35
  A 2.09 2.09 0.0 0 0 101.81 33.26
  A 2.09 2.09 0.0 0 0 99.72 35.35
  A 2.09 2.09 0.0 0 0 101.81 37.44
  A 2.09 2.09 0.0 0 0 103.90 35.35
  Z
  M 185.18 208.53
  A 2.10 2.10 0.0 0 0 183.08 206.43
  A 2.10 2.10 0.0 0 0 180.98 208.53
  A 2.10 2.10 0.0 0 0 183.08 210.63
  A 2.10 2.10 0.0 0 0 185.18 208.53
  Z"
/>
<circle fill="#111111" cx="101.81" cy="35.35" r="2.09"/>
<circle fill="#111111" cx="188.88" cy="35.36" r="2.09"/>
<circle fill="#111111" cx="138.60" cy="42.62" r="2.11"/>
<path fill="#ffffff" d="
  M 203.11 133.70
  C 204.12 134.90 205.10 135.14 205.55 136.85
  C 207.37 143.90 199.00 147.53 195.65 141.84
  Q 193.12 137.54 197.27 134.08
  Q 197.75 133.68 197.75 133.05
  L 197.75 86.97
  A 2.73 2.72 67.7 0 1 198.56 85.03
  L 209.04 74.71
  Q 209.47 74.29 209.47 73.70
  L 209.52 52.78
  A 1.10 1.10 0.0 0 0 209.12 51.93
  C 200.09 44.25 214.29 36.01 217.30 45.04
  Q 218.57 48.87 214.90 51.64
  A 1.00 1.00 0.0 0 0 214.50 52.44
  L 214.50 76.14
  A 1.21 1.18 -23.4 0 1 214.16 76.97
  L 203.21 87.92
  A 0.63 0.62 -22.6 0 0 203.04 88.32
  L 202.76 132.72
  Q 202.75 133.28 203.11 133.70
  Z
  M 213.96 46.87
  A 2.07 2.07 0.0 0 0 211.89 44.80
  A 2.07 2.07 0.0 0 0 209.82 46.87
  A 2.07 2.07 0.0 0 0 211.89 48.94
  A 2.07 2.07 0.0 0 0 213.96 46.87
  Z
  M 202.44 138.82
  A 2.06 2.06 0.0 0 0 200.38 136.76
  A 2.06 2.06 0.0 0 0 198.32 138.82
  A 2.06 2.06 0.0 0 0 200.38 140.88
  A 2.06 2.06 0.0 0 0 202.44 138.82
  Z"
/>
<circle fill="#111111" cx="211.89" cy="46.87" r="2.07"/>
<path fill="#ffffff" d="
  M 82.45 86.44
  C 87.09 90.44 91.46 95.55 95.81 99.96
  Q 96.71 100.88 98.97 100.44
  Q 99.42 100.35 99.84 100.53
  C 111.13 105.29 97.22 117.89 93.17 108.38
  C 92.67 107.20 92.65 105.61 92.45 104.22
  Q 92.38 103.76 92.05 103.42
  L 77.03 88.41
  A 0.97 0.95 -67.8 0 1 76.75 87.73
  L 76.75 75.16
  Q 76.75 74.62 76.37 74.24
  L 68.32 66.20
  A 1.06 1.05 -25.7 0 0 67.45 65.90
  Q 63.14 66.37 61.31 63.45
  C 56.07 55.03 72.78 49.90 71.70 61.64
  A 1.28 1.27 25.0 0 0 72.07 62.65
  L 81.42 72.06
  Q 81.77 72.41 81.79 72.91
  L 82.08 85.65
  Q 82.09 86.12 82.45 86.44
  Z
  M 68.35 60.40
  A 2.11 2.11 0.0 0 0 66.24 58.29
  A 2.11 2.11 0.0 0 0 64.13 60.40
  A 2.11 2.11 0.0 0 0 66.24 62.51
  A 2.11 2.11 0.0 0 0 68.35 60.40
  Z
  M 100.32 105.99
  A 2.07 2.07 0.0 0 0 98.25 103.92
  A 2.07 2.07 0.0 0 0 96.18 105.99
  A 2.07 2.07 0.0 0 0 98.25 108.06
  A 2.07 2.07 0.0 0 0 100.32 105.99
  Z"
/>
<circle fill="#111111" cx="66.24" cy="60.40" r="2.11"/>
<path fill="#ffffff" d="
  M 239.09 60.49
  Q 242.73 64.87 237.85 69.19
  Q 237.51 69.50 237.50 69.96
  L 237.49 76.14
  A 1.20 1.18 -22.8 0 1 237.14 76.98
  L 227.58 86.55
  A 1.06 1.06 0.0 0 0 227.28 87.44
  Q 227.83 91.15 225.73 92.92
  C 217.20 100.08 210.61 82.23 223.26 83.27
  A 1.16 1.14 24.4 0 0 224.19 82.93
  L 231.82 75.31
  Q 232.23 74.90 232.27 74.32
  L 232.57 70.07
  Q 232.61 69.49 232.13 69.15
  C 224.58 63.75 233.74 54.07 239.09 60.49
  Z
  M 237.00 64.22
  A 2.06 2.06 0.0 0 0 234.94 62.16
  A 2.06 2.06 0.0 0 0 232.88 64.22
  A 2.06 2.06 0.0 0 0 234.94 66.28
  A 2.06 2.06 0.0 0 0 237.00 64.22
  Z
  M 223.93 88.72
  A 2.12 2.12 0.0 0 0 221.81 86.60
  A 2.12 2.12 0.0 0 0 219.69 88.72
  A 2.12 2.12 0.0 0 0 221.81 90.84
  A 2.12 2.12 0.0 0 0 223.93 88.72
  Z"
/>
<circle fill="#111111" cx="131.29" cy="64.08" r="2.15"/>
<circle fill="#111111" cx="234.94" cy="64.22" r="2.06"/>
<path fill="#ffffff" d="
  M 183.94 100.54
  C 188.63 99.71 191.84 104.62 189.82 108.56
  C 186.92 114.22 177.78 111.64 179.21 104.73
  Q 179.32 104.22 178.95 103.85
  L 175.12 99.95
  Q 174.75 99.58 174.75 99.05
  L 174.75 86.65
  Q 174.75 86.11 175.13 85.73
  L 178.72 82.14
  Q 179.09 81.76 179.05 81.23
  C 178.25 71.51 190.96 72.22 190.45 80.19
  C 190.24 83.59 187.68 84.69 184.42 85.18
  C 178.08 86.13 177.93 98.03 183.08 100.43
  A 1.49 1.42 50.8 0 0 183.94 100.54
  Z
  M 186.77 79.71
  A 2.06 2.06 0.0 0 0 184.71 77.65
  A 2.06 2.06 0.0 0 0 182.65 79.71
  A 2.06 2.06 0.0 0 0 184.71 81.77
  A 2.06 2.06 0.0 0 0 186.77 79.71
  Z
  M 186.80 106.04
  A 2.10 2.10 0.0 0 0 184.70 103.94
  A 2.10 2.10 0.0 0 0 182.60 106.04
  A 2.10 2.10 0.0 0 0 184.70 108.14
  A 2.10 2.10 0.0 0 0 186.80 106.04
  Z"
/>
<circle fill="#111111" cx="184.71" cy="79.71" r="2.06"/>
<path fill="#ffffff" d="
  M 52.29 90.04
  A 1.31 1.28 -26.2 0 0 51.17 89.67
  Q 45.68 90.47 44.56 85.67
  C 42.51 76.92 56.96 75.88 55.56 85.89
  Q 55.49 86.36 55.83 86.70
  L 90.32 121.20
  A 2.78 2.75 67.1 0 0 92.26 122.00
  L 145.72 122.00
  Q 146.13 122.00 146.42 122.29
  L 168.81 144.69
  A 1.50 1.50 0.0 0 1 169.25 145.75
  L 169.25 185.02
  Q 169.25 185.54 169.67 185.86
  C 174.09 189.12 172.53 196.29 167.09 196.38
  C 162.10 196.47 159.60 191.84 161.95 187.33
  Q 162.17 186.91 162.60 186.67
  C 163.62 186.09 164.29 185.54 164.28 184.26
  Q 164.18 166.41 164.18 148.81
  A 3.02 2.99 -67.9 0 0 163.29 146.67
  L 144.34 127.71
  Q 143.97 127.35 143.45 127.34
  Q 118.28 127.05 93.21 127.10
  C 89.34 127.11 89.84 127.59 87.08 124.88
  Q 69.54 107.66 52.29 90.04
  Z
  M 52.14 84.35
  A 2.08 2.08 0.0 0 0 50.06 82.27
  A 2.08 2.08 0.0 0 0 47.98 84.35
  A 2.08 2.08 0.0 0 0 50.06 86.43
  A 2.08 2.08 0.0 0 0 52.14 84.35
  Z
  M 168.77 190.66
  A 2.13 2.13 0.0 0 0 166.64 188.53
  A 2.13 2.13 0.0 0 0 164.51 190.66
  A 2.13 2.13 0.0 0 0 166.64 192.79
  A 2.13 2.13 0.0 0 0 168.77 190.66
  Z"
/>
<circle fill="#111111" cx="131.31" cy="81.33" r="2.12"/>
<path fill="#ffffff" d="
  M 251.81 81.19
  C 255.49 84.17 253.76 89.26 249.95 90.69
  C 248.91 91.08 247.86 90.94 246.65 91.01
  Q 246.09 91.03 245.69 91.43
  L 220.94 116.18
  A 1.52 1.50 67.9 0 0 220.50 117.25
  L 220.50 150.72
  Q 220.50 151.13 220.21 151.41
  L 202.69 168.94
  Q 202.17 169.45 202.17 170.18
  L 201.99 219.67
  A 0.83 0.80 -72.6 0 0 202.32 220.33
  Q 206.26 223.18 205.05 226.98
  C 202.07 236.25 187.44 227.40 196.63 220.26
  A 0.97 0.97 0.0 0 0 197.00 219.50
  L 197.00 167.98
  Q 197.00 167.35 197.44 166.91
  L 214.42 150.01
  A 3.65 3.65 0.0 0 0 215.50 147.42
  L 215.50 115.26
  A 1.98 1.97 67.8 0 1 216.09 113.85
  L 242.21 87.97
  A 1.23 1.21 -28.2 0 0 242.55 86.88
  C 241.53 81.34 247.40 77.61 251.81 81.19
  Z
  M 250.20 85.45
  A 2.07 2.07 0.0 0 0 248.13 83.38
  A 2.07 2.07 0.0 0 0 246.06 85.45
  A 2.07 2.07 0.0 0 0 248.13 87.52
  A 2.07 2.07 0.0 0 0 250.20 85.45
  Z
  M 201.55 225.18
  A 2.06 2.06 0.0 0 0 199.49 223.12
  A 2.06 2.06 0.0 0 0 197.43 225.18
  A 2.06 2.06 0.0 0 0 199.49 227.24
  A 2.06 2.06 0.0 0 0 201.55 225.18
  Z"
/>
<circle fill="#111111" cx="50.06" cy="84.35" r="2.08"/>
<circle fill="#111111" cx="248.13" cy="85.45" r="2.07"/>
<circle fill="#111111" cx="221.81" cy="88.72" r="2.12"/>
<path fill="#ffffff" d="
  M 49.80 111.69
  C 59.83 121.68 70.03 131.50 79.94 141.60
  A 1.15 1.12 -21.4 0 0 80.72 141.93
  L 125.34 142.30
  A 1.00 0.97 16.6 0 0 126.16 141.87
  C 130.56 135.48 139.68 140.94 136.15 147.40
  C 133.94 151.46 129.07 151.01 126.29 147.63
  A 1.03 1.03 0.0 0 0 125.49 147.25
  L 78.78 147.25
  Q 78.38 147.25 78.09 146.96
  L 45.16 114.04
  Q 44.79 113.66 44.27 113.79
  Q 39.27 115.00 37.82 110.41
  C 35.49 103.06 45.41 99.49 48.66 106.83
  A 1.72 1.71 -53.2 0 1 48.79 107.77
  C 48.55 109.39 48.56 110.45 49.80 111.69
  Z
  M 45.25 108.52
  A 2.09 2.09 0.0 0 0 43.16 106.43
  A 2.09 2.09 0.0 0 0 41.07 108.52
  A 2.09 2.09 0.0 0 0 43.16 110.61
  A 2.09 2.09 0.0 0 0 45.25 108.52
  Z
  M 133.17 144.65
  A 2.01 2.01 0.0 0 0 131.16 142.64
  A 2.01 2.01 0.0 0 0 129.15 144.65
  A 2.01 2.01 0.0 0 0 131.16 146.66
  A 2.01 2.01 0.0 0 0 133.17 144.65
  Z"
/>
<path fill="#ffffff" d="
  M 234.54 150.03
  C 229.60 148.13 229.72 142.83 233.40 139.52
  A 1.05 1.04 69.4 0 0 233.75 138.74
  L 233.75 131.23
  A 1.31 1.27 -23.5 0 1 234.12 130.33
  Q 243.59 120.55 253.44 111.18
  Q 254.20 110.46 254.13 108.73
  C 253.85 102.24 261.58 100.83 264.67 105.85
  C 267.43 110.32 262.79 114.69 258.17 114.06
  Q 257.67 114.00 257.31 114.35
  Q 248.88 122.66 240.58 131.08
  C 237.79 133.91 239.16 135.26 238.98 138.82
  A 1.17 1.16 -67.0 0 0 239.33 139.70
  C 240.49 140.84 241.71 141.80 241.93 143.49
  C 242.45 147.48 238.74 151.64 234.54 150.03
  Z
  M 261.59 108.53
  A 2.05 2.05 0.0 0 0 259.54 106.48
  A 2.05 2.05 0.0 0 0 257.49 108.53
  A 2.05 2.05 0.0 0 0 259.54 110.58
  A 2.05 2.05 0.0 0 0 261.59 108.53
  Z
  M 238.38 144.64
  A 2.06 2.06 0.0 0 0 236.32 142.58
  A 2.06 2.06 0.0 0 0 234.26 144.64
  A 2.06 2.06 0.0 0 0 236.32 146.70
  A 2.06 2.06 0.0 0 0 238.38 144.64
  Z"
/>
<circle fill="#111111" cx="98.25" cy="105.99" r="2.07"/>
<circle fill="#111111" cx="184.70" cy="106.04" r="2.10"/>
<circle fill="#111111" cx="43.16" cy="108.52" r="2.09"/>
<circle fill="#111111" cx="259.54" cy="108.53" r="2.05"/>
<path fill="#ffffff" d="
  M 255.50 158.73
  L 255.50 138.28
  A 0.97 0.95 67.8 0 1 255.78 137.60
  L 259.56 133.80
  A 1.14 1.13 -27.6 0 0 259.87 132.83
  C 258.20 122.31 274.45 124.70 270.62 133.84
  Q 268.98 137.76 263.99 137.28
  Q 263.49 137.23 263.08 137.52
  Q 260.48 139.38 260.49 141.24
  Q 260.52 152.61 260.52 163.97
  Q 260.52 164.49 259.99 164.49
  Q 249.14 164.51 238.38 164.51
  C 235.64 164.51 235.02 165.74 233.22 167.46
  Q 226.93 173.50 220.93 179.80
  Q 220.58 180.16 220.58 180.67
  Q 220.30 202.90 220.24 225.07
  C 220.23 228.94 219.67 231.30 222.89 234.06
  Q 223.30 234.41 223.36 234.94
  C 225.10 248.30 204.57 241.44 215.15 231.48
  A 1.36 1.34 -22.5 0 0 215.57 230.48
  L 215.23 178.36
  A 0.97 0.95 67.8 0 1 215.51 177.68
  L 233.44 159.73
  Q 233.86 159.31 234.47 159.30
  L 255.01 159.22
  Q 255.50 159.22 255.50 158.73
  Z
  M 267.51 131.54
  A 2.09 2.09 0.0 0 0 265.42 129.45
  A 2.09 2.09 0.0 0 0 263.33 131.54
  A 2.09 2.09 0.0 0 0 265.42 133.63
  A 2.09 2.09 0.0 0 0 267.51 131.54
  Z
  M 219.94 236.73
  A 2.06 2.06 0.0 0 0 217.88 234.67
  A 2.06 2.06 0.0 0 0 215.82 236.73
  A 2.06 2.06 0.0 0 0 217.88 238.79
  A 2.06 2.06 0.0 0 0 219.94 236.73
  Z"
/>
<path fill="#ffffff" d="
  M 27.65 133.47
  C 27.57 122.40 46.09 128.73 36.09 138.44
  A 1.17 1.13 -23.2 0 0 35.75 139.25
  L 35.75 154.64
  A 1.16 1.15 -68.0 0 0 36.10 155.47
  L 49.93 169.31
  A 1.01 0.99 -26.7 0 0 50.77 169.58
  C 55.39 168.92 59.77 173.28 57.48 177.50
  C 54.10 183.71 45.82 180.58 46.56 173.60
  Q 46.62 173.06 46.24 172.68
  L 31.18 157.53
  Q 30.75 157.09 30.75 156.47
  L 30.75 139.22
  Q 30.75 138.64 30.34 138.25
  C 28.84 136.81 27.66 135.66 27.65 133.47
  Z
  M 35.35 133.27
  A 2.05 2.05 0.0 0 0 33.30 131.22
  A 2.05 2.05 0.0 0 0 31.25 133.27
  A 2.05 2.05 0.0 0 0 33.30 135.32
  A 2.05 2.05 0.0 0 0 35.35 133.27
  Z
  M 54.27 175.14
  A 2.10 2.10 0.0 0 0 52.17 173.04
  A 2.10 2.10 0.0 0 0 50.07 175.14
  A 2.10 2.10 0.0 0 0 52.17 177.24
  A 2.10 2.10 0.0 0 0 54.27 175.14
  Z"
/>
<circle fill="#111111" cx="265.42" cy="131.54" r="2.09"/>
<circle fill="#111111" cx="33.30" cy="133.27" r="2.05"/>
<circle fill="#111111" cx="200.38" cy="138.82" r="2.06"/>
<circle fill="#111111" cx="236.32" cy="144.64" r="2.06"/>
<circle fill="#111111" cx="131.16" cy="144.65" r="2.01"/>
<path fill="#ffffff" d="
  M 108.46 198.27
  C 119.85 197.33 115.70 213.95 106.72 208.62
  Q 103.69 206.83 104.31 202.55
  Q 104.38 202.03 104.01 201.66
  L 57.11 154.76
  A 1.02 1.01 -25.5 0 0 56.26 154.46
  C 46.47 155.59 47.05 141.73 55.64 143.30
  Q 60.56 144.19 60.34 150.18
  Q 60.32 150.70 60.69 151.07
  L 107.57 197.94
  A 1.14 1.13 65.2 0 0 108.46 198.27
  Z
  M 56.76 148.85
  A 2.12 2.12 0.0 0 0 54.64 146.73
  A 2.12 2.12 0.0 0 0 52.52 148.85
  A 2.12 2.12 0.0 0 0 54.64 150.97
  A 2.12 2.12 0.0 0 0 56.76 148.85
  Z
  M 111.83 203.89
  A 2.03 2.03 0.0 0 0 109.80 201.86
  A 2.03 2.03 0.0 0 0 107.77 203.89
  A 2.03 2.03 0.0 0 0 109.80 205.92
  A 2.03 2.03 0.0 0 0 111.83 203.89
  Z"
/>
<circle fill="#111111" cx="54.64" cy="148.85" r="2.12"/>
<path fill="#ffffff" d="
  M 102.54 159.43
  L 115.98 159.45
  Q 116.50 159.45 116.50 159.97
  L 116.50 173.06
  A 1.97 1.96 19.9 0 0 117.21 174.57
  C 123.37 179.69 116.09 188.29 110.54 183.61
  C 107.34 180.92 107.50 176.65 111.08 174.29
  A 0.95 0.94 73.4 0 0 111.50 173.50
  L 111.50 165.50
  A 1.00 1.00 0.0 0 0 110.50 164.50
  L 102.71 164.50
  A 1.38 1.37 20.7 0 0 101.68 164.96
  Q 97.82 169.25 93.69 166.58
  C 86.36 161.83 95.47 151.36 101.44 158.90
  A 1.41 1.40 -19.1 0 0 102.54 159.43
  Z
  M 98.69 161.92
  A 2.00 2.00 0.0 0 0 96.69 159.92
  A 2.00 2.00 0.0 0 0 94.69 161.92
  A 2.00 2.00 0.0 0 0 96.69 163.92
  A 2.00 2.00 0.0 0 0 98.69 161.92
  Z
  M 116.01 179.14
  A 2.09 2.09 0.0 0 0 113.92 177.05
  A 2.09 2.09 0.0 0 0 111.83 179.14
  A 2.09 2.09 0.0 0 0 113.92 181.23
  A 2.09 2.09 0.0 0 0 116.01 179.14
  Z"
/>
<path fill="#ffffff" d="
  M 143.65 256.82
  C 146.51 253.08 151.60 253.33 153.62 257.54
  C 156.54 263.61 148.09 268.90 143.46 262.61
  A 0.91 0.90 -18.0 0 0 142.73 262.24
  L 120.00 262.27
  Q 119.35 262.27 119.81 261.81
  L 145.20 236.43
  A 2.78 2.75 -22.9 0 0 146.00 234.49
  L 146.00 167.76
  A 1.09 1.06 -71.8 0 0 145.58 166.90
  C 137.98 161.13 147.58 152.20 152.66 158.35
  Q 156.23 162.67 151.42 167.09
  Q 150.98 167.49 150.98 168.10
  L 151.16 237.45
  A 1.14 1.10 -23.6 0 1 150.84 238.23
  L 132.31 256.84
  Q 131.84 257.32 132.51 257.31
  L 142.86 257.22
  Q 143.35 257.22 143.65 256.82
  Z
  M 148.9327 164.2530
  A 2.21 1.99 79.5 0 0 150.4867 161.7174
  A 2.21 1.99 79.5 0 0 148.1273 159.9070
  A 2.21 1.99 79.5 0 0 146.5733 162.4426
  A 2.21 1.99 79.5 0 0 148.9327 164.2530
  Z
  M 150.46 259.84
  A 2.03 2.03 0.0 0 0 148.43 257.81
  A 2.03 2.03 0.0 0 0 146.40 259.84
  A 2.03 2.03 0.0 0 0 148.43 261.87
  A 2.03 2.03 0.0 0 0 150.46 259.84
  Z"
/>
<circle fill="#111111" cx="96.69" cy="161.92" r="2.00"/>
<ellipse fill="#111111" cx="0.00" cy="0.00" transform="translate(148.53,162.08) rotate(79.5)" rx="2.21" ry="1.99"/>
<path fill="#ffffff" d="
  M 132.89 162.36
  C 137.88 164.07 138.17 169.39 134.15 172.66
  Q 133.75 172.99 133.75 173.51
  L 133.75 231.89
  Q 133.75 232.39 133.39 232.74
  L 118.06 247.73
  A 0.96 0.94 -27.6 0 0 117.79 248.56
  C 119.37 258.61 104.60 257.32 106.80 248.51
  Q 107.96 243.86 113.45 244.60
  A 1.08 1.05 25.7 0 0 114.32 244.31
  L 128.08 230.54
  Q 128.42 230.20 128.43 229.72
  L 128.80 173.65
  A 1.15 1.13 -70.0 0 0 128.40 172.78
  C 122.98 168.10 126.62 160.21 132.89 162.36
  Z
  M 133.33 167.81
  A 2.08 2.08 0.0 0 0 131.25 165.73
  A 2.08 2.08 0.0 0 0 129.17 167.81
  A 2.08 2.08 0.0 0 0 131.25 169.89
  A 2.08 2.08 0.0 0 0 133.33 167.81
  Z
  M 114.35 249.96
  A 2.06 2.06 0.0 0 0 112.29 247.90
  A 2.06 2.06 0.0 0 0 110.23 249.96
  A 2.06 2.06 0.0 0 0 112.29 252.02
  A 2.06 2.06 0.0 0 0 114.35 249.96
  Z"
/>
<circle fill="#111111" cx="131.25" cy="167.81" r="2.08"/>
<circle fill="#111111" cx="52.17" cy="175.14" r="2.10"/>
<path fill="#ffffff" d="
  M 241.59 176.61
  C 246.09 176.08 250.24 178.10 254.00 175.33
  C 261.37 169.88 267.08 179.43 261.30 183.70
  Q 256.83 186.99 252.97 182.15
  Q 252.66 181.76 252.16 181.76
  Q 248.60 181.74 245.07 181.74
  C 240.81 181.75 236.75 185.25 236.75 189.61
  C 236.75 193.57 235.78 205.16 237.46 208.19
  C 239.79 212.41 245.78 208.61 247.26 214.52
  C 249.24 222.41 235.93 225.71 236.26 214.64
  A 1.16 1.15 23.4 0 0 235.92 213.80
  L 232.19 210.06
  A 1.50 1.50 0.0 0 1 231.75 209.00
  L 231.75 185.26
  A 1.45 1.42 65.5 0 1 232.09 184.33
  C 234.38 181.62 237.89 177.05 241.59 176.61
  Z
  M 260.00 179.27
  A 2.08 2.08 0.0 0 0 257.92 177.19
  A 2.08 2.08 0.0 0 0 255.84 179.27
  A 2.08 2.08 0.0 0 0 257.92 181.35
  A 2.08 2.08 0.0 0 0 260.00 179.27
  Z
  M 243.78 216.12
  A 2.11 2.11 0.0 0 0 241.67 214.01
  A 2.11 2.11 0.0 0 0 239.56 216.12
  A 2.11 2.11 0.0 0 0 241.67 218.23
  A 2.11 2.11 0.0 0 0 243.78 216.12
  Z"
/>
<circle fill="#111111" cx="113.92" cy="179.14" r="2.09"/>
<circle fill="#111111" cx="257.92" cy="179.27" r="2.08"/>
<circle fill="#111111" cx="166.64" cy="190.66" r="2.13"/>
<path fill="#ffffff" d="
  M 79.08 198.67
  Q 95.39 214.46 111.25 230.74
  Q 111.58 231.08 111.25 231.42
  L 100.63 242.02
  A 0.99 0.98 -28.7 0 0 100.36 242.92
  C 102.03 250.87 90.45 252.27 89.33 245.24
  C 88.63 240.91 92.35 238.13 96.51 238.52
  A 1.16 1.14 24.9 0 0 97.43 238.19
  L 104.06 231.57
  A 0.79 0.78 45.0 0 0 104.05 230.46
  L 74.24 200.67
  A 0.88 0.87 63.3 0 0 73.50 200.42
  C 66.58 201.41 63.18 192.57 69.51 189.80
  Q 74.39 187.67 77.46 192.82
  A 1.16 1.14 -54.2 0 1 77.59 193.68
  C 77.05 195.95 77.39 197.04 79.08 198.67
  Z
  M 74.09 194.91
  A 2.11 2.11 0.0 0 0 71.98 192.80
  A 2.11 2.11 0.0 0 0 69.87 194.91
  A 2.11 2.11 0.0 0 0 71.98 197.02
  A 2.11 2.11 0.0 0 0 74.09 194.91
  Z
  M 97.18 244.20
  A 2.11 2.11 0.0 0 0 95.07 242.09
  A 2.11 2.11 0.0 0 0 92.96 244.20
  A 2.11 2.11 0.0 0 0 95.07 246.31
  A 2.11 2.11 0.0 0 0 97.18 244.20
  Z"
/>
<circle fill="#111111" cx="71.98" cy="194.91" r="2.11"/>
<path fill="#ffffff" d="
  M 68.53 223.69
  Q 59.66 215.28 51.15 206.44
  A 1.00 0.98 -24.7 0 0 50.31 206.14
  C 45.63 206.73 41.40 202.61 43.60 198.29
  C 46.76 192.09 55.55 195.02 54.42 201.97
  A 1.00 0.98 27.8 0 0 54.69 202.82
  L 73.10 221.22
  A 1.20 1.20 0.0 0 0 74.11 221.56
  Q 78.45 220.98 80.16 224.06
  C 84.72 232.27 70.12 236.86 69.67 226.98
  C 69.60 225.47 69.75 224.84 68.53 223.69
  Z
  M 50.99 200.63
  A 2.09 2.09 0.0 0 0 48.90 198.54
  A 2.09 2.09 0.0 0 0 46.81 200.63
  A 2.09 2.09 0.0 0 0 48.90 202.72
  A 2.09 2.09 0.0 0 0 50.99 200.63
  Z
  M 77.30 226.89
  A 2.11 2.11 0.0 0 0 75.19 224.78
  A 2.11 2.11 0.0 0 0 73.08 226.89
  A 2.11 2.11 0.0 0 0 75.19 229.00
  A 2.11 2.11 0.0 0 0 77.30 226.89
  Z"
/>
<circle fill="#111111" cx="48.90" cy="200.63" r="2.09"/>
<circle fill="#111111" cx="109.80" cy="203.89" r="2.03"/>
<circle fill="#111111" cx="183.08" cy="208.53" r="2.10"/>
<path fill="#ffffff" d="
  M 168.54 226.48
  Q 168.06 238.74 168.30 251.00
  C 168.35 253.42 167.90 253.99 169.81 255.83
  C 172.58 258.49 171.76 262.93 168.69 264.66
  C 162.26 268.30 156.66 259.41 162.79 254.94
  A 1.10 1.09 -18.1 0 0 163.25 254.05
  L 163.25 213.99
  A 0.26 0.26 0.0 0 1 163.70 213.81
  L 194.04 244.17
  A 1.11 1.08 64.2 0 0 194.92 244.49
  C 203.01 243.64 204.48 254.08 197.58 255.43
  C 192.97 256.33 190.01 253.07 190.59 248.50
  A 0.99 0.98 -64.1 0 0 190.31 247.68
  L 168.95 226.32
  Q 168.56 225.94 168.54 226.48
  Z
  M 198.26 249.98
  A 2.03 2.03 0.0 0 0 196.23 247.95
  A 2.03 2.03 0.0 0 0 194.20 249.98
  A 2.03 2.03 0.0 0 0 196.23 252.01
  A 2.03 2.03 0.0 0 0 198.26 249.98
  Z
  M 167.85 259.76
  A 2.05 2.05 0.0 0 0 165.80 257.71
  A 2.05 2.05 0.0 0 0 163.75 259.76
  A 2.05 2.05 0.0 0 0 165.80 261.81
  A 2.05 2.05 0.0 0 0 167.85 259.76
  Z"
/>
<circle fill="#111111" cx="241.67" cy="216.12" r="2.11"/>
<circle fill="#111111" cx="199.49" cy="225.18" r="2.06"/>
<circle fill="#111111" cx="75.19" cy="226.89" r="2.11"/>
<circle fill="#111111" cx="217.88" cy="236.73" r="2.06"/>
<circle fill="#111111" cx="95.07" cy="244.20" r="2.11"/>
<circle fill="#111111" cx="112.29" cy="249.96" r="2.06"/>
<circle fill="#111111" cx="196.23" cy="249.98" r="2.03"/>
<circle fill="#111111" cx="165.80" cy="259.76" r="2.05"/>
<circle fill="#111111" cx="148.43" cy="259.84" r="2.03"/>
</svg>
