<svg width="50" height="48" viewBox="0 0 50 48" fill="none" xmlns="http://www.w3.org/2000/svg">
<path id="Vector" d="M0 0H50V48H0V0ZM23.578 7.16174C23.594 7.46609 23.5426 7.65739 23.7092 7.91304C24.2766 8.78609 25.5514 8.42957 25.5727 7.42087C25.5851 6.7287 24.984 6.38261 24.3316 6.44174C24.3049 6.44394 24.2781 6.44057 24.253 6.43187C24.2279 6.42317 24.2051 6.40934 24.1862 6.3913L22.9982 5.24696C22.9557 5.20522 22.9385 5.15478 22.9468 5.09565C23.1436 3.83652 21.4557 3.35826 20.9982 4.50087C20.6897 5.27304 21.4309 5.8887 22.2145 5.81043C22.2713 5.80464 22.3197 5.82203 22.3599 5.86261L23.5106 7.01217C23.552 7.05391 23.5745 7.10377 23.578 7.16174ZM24.0957 11.7009C24.1237 11.6617 24.1608 11.6297 24.204 11.6076C24.2472 11.5855 24.2952 11.574 24.344 11.5739L27.4645 11.5652C27.5191 11.5652 27.5714 11.5439 27.6099 11.5061L30.9734 8.20522C31.0242 8.15652 31.0248 8.10725 30.9752 8.05739C30.0579 7.14957 29.1359 6.24638 28.2092 5.34783C27.9309 5.07652 28.1436 4.77391 27.9858 4.46435C27.3404 3.19652 25.4699 4.13565 26.2092 5.37913C26.4232 5.74087 26.7855 5.88406 27.2961 5.8087C27.3236 5.80488 27.3518 5.80745 27.3782 5.81621C27.4047 5.82496 27.4288 5.83966 27.4486 5.85913L29.7004 8.06783C29.7465 8.11188 29.7465 8.15594 29.7004 8.2L27.2234 10.6191C27.1735 10.6681 27.1065 10.6956 27.0372 10.6957H24.2908C24.2352 10.6957 24.1897 10.6748 24.1543 10.633C23.685 10.0812 23.1986 9.98609 22.695 10.3478C21.3972 11.28 23.2199 12.9357 24.0957 11.7009ZM24.1755 13.647C22.4007 11.9339 21.3794 15.1983 23.3688 15.1426C23.8351 15.1304 24.078 14.5861 24.3794 14.5704C25.1903 14.5287 26.5331 14.5426 28.4078 14.6122C28.4728 14.6145 28.5284 14.5936 28.5745 14.5496L33.8564 9.4313C33.8732 9.4153 33.8866 9.39627 33.8958 9.37536C33.9049 9.35444 33.9096 9.33207 33.9096 9.30957V7.13565C33.9096 7.11145 33.9147 7.08754 33.9244 7.06541C33.9342 7.04328 33.9484 7.02338 33.9663 7.00696L34.3511 6.65217C34.3948 6.61159 34.4244 6.56232 34.4397 6.50435C34.7358 5.4087 33.3422 4.61391 32.6968 5.5113C32.3079 6.05044 32.3948 6.54435 32.9574 6.99304C32.9779 7.00935 32.9944 7.02999 33.0058 7.05346C33.0171 7.07692 33.023 7.10262 33.0231 7.1287V8.90435C33.023 8.92645 33.0186 8.94828 33.0101 8.96857C33.0016 8.98886 32.9891 9.00723 32.9734 9.02261L28.2269 13.6243C28.2039 13.647 28.1765 13.6649 28.1464 13.6771C28.1163 13.6894 28.084 13.6957 28.0514 13.6957H24.2961C24.2488 13.6957 24.2086 13.6794 24.1755 13.647ZM33.0124 35.4244C32.9297 35.3594 32.8883 35.2748 32.8883 35.1704L32.9078 23.1861C32.9078 23.1223 32.8853 23.0678 32.8404 23.0226L27.4965 17.7583C27.4539 17.7165 27.4025 17.6957 27.3422 17.6957H21.4911C21.4208 17.6957 21.3533 17.6689 21.3032 17.6209L18.594 15.0209C18.5585 14.9884 18.5408 14.9478 18.5408 14.8991L18.4982 7.14261C18.497 7.08232 18.5183 7.0313 18.5621 6.98956L18.8972 6.65913C18.9385 6.61971 18.9657 6.57275 18.9787 6.51826C19.1017 6.02203 19 5.64522 18.6738 5.38783C17.578 4.52174 16.3298 6.20174 17.5248 6.99478C17.5472 7.00919 17.5655 7.0288 17.5782 7.05187C17.5909 7.07494 17.5975 7.10074 17.5975 7.12696V15.2539C17.5975 15.2803 17.6029 15.3064 17.6132 15.3306C17.6236 15.3548 17.6387 15.3766 17.6578 15.3948L21.0248 18.5774C21.0498 18.6008 21.0828 18.6139 21.117 18.6139L26.9415 18.5965C26.975 18.596 27.0084 18.6022 27.0395 18.6147C27.0705 18.6273 27.0988 18.6459 27.1223 18.6696L31.9255 23.3809C31.9775 23.4307 32.0035 23.4922 32.0035 23.5652V35.3078C32.0035 35.3354 31.9969 35.3625 31.9843 35.3869C31.9716 35.4114 31.9533 35.4326 31.9309 35.4487C30.4486 36.5322 32.6649 38.1496 33.3582 36.72C33.5869 36.2487 33.422 35.7409 33.0124 35.4244ZM36.445 23.8C36.3652 23.5026 36.1915 23.4609 36.0124 23.2522C35.9699 23.2035 35.9492 23.1467 35.9504 23.0817L36 15.36C36.0012 15.3342 36.0119 15.3095 36.0301 15.2904L37.9716 13.3861C38.0103 13.347 38.0319 13.2952 38.0319 13.2417V9.12C38.0319 9.093 38.0383 9.06637 38.0506 9.04222C38.0629 9.01807 38.0808 8.99707 38.1028 8.98087C38.5366 8.65971 38.6785 8.2771 38.5284 7.83304C37.9947 6.26261 35.477 7.69565 37.078 9.0313C37.1002 9.04928 37.1181 9.07186 37.1304 9.09742C37.1426 9.12298 37.149 9.15088 37.1489 9.17913L37.1401 12.8174C37.1401 12.8858 37.1147 12.9443 37.0638 12.993L35.2057 14.7878C35.1602 14.8319 35.1241 14.8843 35.0994 14.9423C35.0748 15.0002 35.0621 15.0624 35.0621 15.1252V23.1391C35.0621 23.2122 35.0337 23.2719 34.977 23.3183C34.4864 23.7194 34.3907 24.1693 34.6897 24.6678C35.2837 25.6574 36.7677 25.0261 36.445 23.8ZM16.9876 17.3843C16.2163 16.6174 15.4415 15.7287 14.6188 15.033C14.5762 14.9959 14.5544 14.9501 14.5532 14.8957L14.5018 12.68C14.4994 12.622 14.4775 12.5728 14.4362 12.5322L12.7784 10.8957C12.755 10.8727 12.737 10.8451 12.7257 10.8148C12.7144 10.7845 12.71 10.7521 12.7128 10.72C12.9043 8.67826 9.94149 9.57044 10.8706 11.0348C11.0869 11.3733 11.4498 11.5154 11.9592 11.4609C11.9874 11.4576 12.0159 11.4606 12.0426 11.4696C12.0693 11.4787 12.0936 11.4935 12.1135 11.513L13.5408 12.9113C13.5857 12.9554 13.6082 13.0087 13.6082 13.0713V15.2574C13.6082 15.2795 13.6126 15.3013 13.6211 15.3216C13.6296 15.3419 13.6421 15.3603 13.6578 15.3757L16.3209 17.9861C16.3599 18.0255 16.3836 18.0719 16.3918 18.1252C16.4273 18.367 16.4309 18.6435 16.5195 18.8487C17.2376 20.5026 19.7039 18.3113 17.7021 17.4835C17.6525 17.4626 17.6011 17.4574 17.5479 17.4678C17.2807 17.5188 17.094 17.491 16.9876 17.3843ZM42.3918 10.52C41.4433 9.40348 39.8191 11.087 41.1578 12.0261C41.2145 12.0655 41.2405 12.1188 41.2358 12.1861L41.1826 12.9252C41.1779 12.9925 41.1513 13.0499 41.1028 13.0974L39.75 14.4226C39.729 14.4438 39.7032 14.4601 39.6747 14.4704C39.6462 14.4806 39.6156 14.4845 39.5851 14.4817C37.3422 14.3009 38.5106 17.4052 40.023 16.16C40.2713 15.9548 40.3629 15.6371 40.2979 15.207C40.294 15.1789 40.2968 15.1503 40.306 15.1235C40.3153 15.0966 40.3307 15.0722 40.3511 15.0522L42.0461 13.3878C42.0858 13.3488 42.1082 13.2963 42.1082 13.2417L42.1099 12.167C42.1111 12.1136 42.1318 12.069 42.172 12.033C42.7488 11.5322 42.8221 11.0278 42.3918 10.52ZM33.656 18.88C34.0142 18.1948 33.445 17.3409 32.6135 17.4852C32.5626 17.4943 32.5094 17.4876 32.461 17.4661C31.5479 17.0487 31.5745 14.9791 32.6986 14.8139C33.2766 14.7287 33.7305 14.5374 33.7677 13.9461C33.8582 12.56 31.6046 12.4365 31.7465 14.127C31.7512 14.1884 31.7317 14.2412 31.6879 14.2852L31.0514 14.9096C31.0065 14.9536 30.984 15.007 30.984 15.0696V17.2261C30.984 17.2875 31.0059 17.3397 31.0496 17.3826L31.7287 18.0609C31.7725 18.1038 31.7878 18.1548 31.7748 18.2139C31.5213 19.4157 33.1418 19.8643 33.656 18.88ZM9.27128 15.6591C11.3103 17.702 13.3664 19.7217 15.4397 21.7183C15.9291 22.1896 15.8404 22.1061 16.5266 22.1043C19.49 22.0986 22.4592 22.1125 25.4344 22.1461C25.4959 22.1472 25.5485 22.1687 25.5922 22.2104L28.9521 25.5078C29.0021 25.5563 29.0418 25.6141 29.0689 25.678C29.096 25.7419 29.1099 25.8106 29.1099 25.88C29.1099 27.9206 29.1158 29.9757 29.1277 32.0452C29.1294 32.2678 29.0106 32.3635 28.8298 32.4643C28.779 32.4922 28.7405 32.5304 28.7145 32.5791C28.2979 33.3635 28.7411 34.1687 29.6259 34.153C30.5904 34.1374 30.867 32.8904 30.0833 32.3235C30.0337 32.2864 30.0089 32.2377 30.0089 32.1774V25.3478C30.0088 25.2787 29.9807 25.2124 29.9309 25.1635L25.961 21.2678C25.9267 21.2342 25.8853 21.2174 25.8369 21.2174H16.3582C16.2298 21.2173 16.1062 21.1674 16.0142 21.0783L9.89894 15.0783C9.85875 15.0388 9.84279 14.9919 9.85106 14.9374C10.0993 13.1965 7.53723 13.3774 7.90071 14.8991C8.0331 15.4557 8.42376 15.6875 9.07269 15.5948C9.10899 15.5894 9.14592 15.5925 9.18044 15.6037C9.21497 15.6149 9.2461 15.6339 9.27128 15.6591ZM44.6472 14.12C43.8652 13.4974 42.8245 14.1461 43.0053 15.1096C43.0119 15.1433 43.0098 15.1783 42.9993 15.2113C42.9888 15.2443 42.9702 15.2745 42.945 15.2991L38.3138 19.8C38.2807 19.8319 38.2544 19.8701 38.2364 19.9122C38.2185 19.9543 38.2092 19.9995 38.2092 20.0452V25.6383C38.2092 25.722 38.1922 25.8049 38.1594 25.8822C38.1265 25.9596 38.0784 26.0297 38.0177 26.0887L35.0071 29.0278C34.9551 29.0788 34.9291 29.1409 34.9291 29.2139V38.1739C34.929 38.1994 34.9231 38.2245 34.9117 38.2474C34.9004 38.2703 34.8839 38.2903 34.8635 38.3061C33.234 39.5478 35.828 41.087 36.3564 39.4748C36.4994 39.0342 36.3381 38.6487 35.8723 38.3183C35.8542 38.3053 35.8395 38.2882 35.8294 38.2682C35.8192 38.2483 35.8139 38.2261 35.8138 38.2035L35.8457 29.5965C35.8457 29.5119 35.8765 29.44 35.9379 29.3809L39.0443 26.3322C39.0786 26.2997 39.0957 26.2597 39.0957 26.2122V20.3913C39.0957 20.3566 39.1026 20.3223 39.116 20.2904C39.1294 20.2585 39.149 20.2295 39.1738 20.2052L43.5621 15.9009C43.6093 15.8545 43.6661 15.8301 43.7323 15.8278C43.9468 15.8157 44.133 15.84 44.3174 15.7722C44.9929 15.5235 45.2996 14.6383 44.6472 14.12ZM14.1738 24.6261C12.4167 22.8696 10.6082 21.1617 8.82979 19.4243C8.60993 19.2087 8.60816 19.0243 8.65071 18.7426C8.65884 18.687 8.65085 18.6303 8.62766 18.5791C8.05142 17.3026 6.29255 17.9235 6.70567 19.2017C6.87707 19.7339 7.25827 19.9299 7.84929 19.7896C7.91076 19.7745 7.96336 19.789 8.00709 19.833L13.8457 25.5583C13.88 25.5919 13.9208 25.6087 13.9681 25.6087H22.25C22.2772 25.6087 22.304 25.6146 22.3285 25.626C22.3531 25.6375 22.3747 25.6541 22.3918 25.6748C22.8848 26.2626 23.7482 26.3409 24.1401 25.6348C24.766 24.5113 23.1489 23.5617 22.3688 24.673C22.353 24.6961 22.3315 24.7149 22.3062 24.7279C22.2808 24.741 22.2524 24.7478 22.2234 24.7478L14.3121 24.6835C14.2597 24.6824 14.2101 24.6618 14.1738 24.6261ZM41.5851 26.0922C42.3298 26.3722 42.9876 25.6487 42.8954 24.9548C42.8564 24.6609 42.6401 24.4939 42.4344 24.2957C42.4137 24.2759 42.3975 24.2521 42.3869 24.2257C42.3762 24.1994 42.3712 24.1711 42.3723 24.1426C42.4043 23.5235 42.1614 23.2887 42.656 22.7965C43.6371 21.8203 44.6259 20.8504 45.6223 19.887C45.6649 19.8464 45.7157 19.8296 45.7748 19.8365C46.594 19.9461 47.4167 19.1861 46.9273 18.4087C46.3794 17.5357 45.0089 17.7809 45.0585 18.9096C45.0668 19.1101 45.026 19.2522 44.9362 19.3357C43.7719 20.422 42.63 21.5322 41.5106 22.6661C41.4685 22.7085 41.445 22.7647 41.445 22.8226V24.1287C41.445 24.1544 41.4394 24.1798 41.4287 24.2032C41.418 24.2265 41.4024 24.2474 41.383 24.2643C40.7305 24.84 40.7092 25.7617 41.5851 26.0922ZM45.2145 27.6904L41.5727 27.7043C41.5006 27.7055 41.4397 27.7304 41.3901 27.7791L38.211 30.9009C38.1953 30.9163 38.1828 30.9346 38.1743 30.9549C38.1658 30.9752 38.1614 30.997 38.1613 31.0191L38.2216 40.0835C38.2222 40.1158 38.2159 40.1479 38.2031 40.1778C38.1903 40.2078 38.1712 40.2349 38.1472 40.2574C36.2713 41.9896 39.9114 43.1826 39.6028 40.8591C39.5957 40.7977 39.568 40.7467 39.5195 40.7061C38.9486 40.2261 39.0479 39.8157 39.0496 39.1426C39.0567 36.5722 39.0768 33.9983 39.1099 31.4209C39.1099 31.3617 39.1306 31.3113 39.172 31.2696C39.8812 30.5391 40.6076 29.8238 41.3511 29.1235C41.6702 28.8244 41.7801 28.6104 42.266 28.6104C43.5378 28.6104 44.815 28.6093 46.0975 28.607C46.1602 28.607 46.1915 28.5768 46.1915 28.5165C46.1915 27.1994 46.1897 25.8817 46.1862 24.5635C46.185 24.3478 46.3381 24.1322 46.6454 23.9165C46.6939 23.8829 46.7476 23.869 46.8067 23.8748C47.3966 23.9304 47.7884 23.731 47.9823 23.2765C48.6613 21.687 45.7801 21.2713 46.0762 23.1009C46.0811 23.1311 46.0787 23.1621 46.0692 23.1914C46.0596 23.2207 46.0432 23.2475 46.0213 23.2696L45.3511 23.9304C45.3353 23.9458 45.3229 23.9642 45.3143 23.9845C45.3058 24.0048 45.3014 24.0266 45.3014 24.0487V27.6052C45.3014 27.662 45.2725 27.6904 45.2145 27.6904ZM6.39894 24.0765C8.17199 22.3878 4.8883 21.287 4.90248 23.2122C4.90426 23.593 5.11348 23.793 5.37943 24.0435C5.4279 24.0887 5.45213 24.1449 5.45213 24.2122V27.2122C5.45213 27.2841 5.47754 27.3455 5.52837 27.3965L8.19858 30.0313C8.2435 30.0754 8.26241 30.1287 8.25532 30.1913C8.12411 31.4052 9.5922 31.9496 10.1915 30.8696C10.5975 30.1357 9.82092 29.3774 9.00177 29.4922C8.97471 29.496 8.94721 29.4937 8.92139 29.4856C8.89557 29.4774 8.87212 29.4636 8.85284 29.4452L6.40071 27.0383C6.38107 27.0196 6.36546 26.9972 6.3548 26.9724C6.34414 26.9476 6.33865 26.9209 6.33865 26.8939V24.2174C6.33869 24.1651 6.36036 24.1145 6.39894 24.0765ZM18.922 36.2817C20.5142 37.2087 21.25 34.3183 19.2305 34.4817C19.2016 34.484 19.1726 34.48 19.1453 34.4701C19.1181 34.4601 19.0933 34.4446 19.0727 34.4244L10.7606 26.273C10.7169 26.2301 10.6962 26.1786 10.6986 26.1183C10.7246 25.4238 10.4468 25.0249 9.86525 24.9217C8.3422 24.6487 8.23936 27.0591 9.97518 26.8626C10.0028 26.8594 10.0308 26.8624 10.0569 26.8714C10.0831 26.8805 10.1067 26.8953 10.1259 26.9148L18.4415 35.0713C18.4852 35.1142 18.503 35.1658 18.4947 35.2261C18.4214 35.7223 18.5638 36.0742 18.922 36.2817ZM18.1809 27.727C18.1433 27.7269 18.1062 27.7186 18.0724 27.7027C18.0387 27.6867 18.0091 27.6635 17.9858 27.6348C16.9273 26.3235 15.3121 28.1443 16.6117 28.9704C17.0999 29.28 17.5721 29.1861 18.0284 28.6887C18.0512 28.6635 18.0793 28.6433 18.1108 28.6295C18.1423 28.6158 18.1764 28.6086 18.211 28.6087H19.5922C19.6392 28.6087 19.6843 28.627 19.7176 28.6596C19.7508 28.6922 19.7695 28.7365 19.7695 28.7826V30.1739C19.7696 30.2012 19.7628 30.228 19.7498 30.252C19.7368 30.276 19.718 30.2963 19.695 30.3113C19.0603 30.7217 19.0319 31.4643 19.5993 31.9322C20.5833 32.7461 21.8741 31.2504 20.7819 30.36C20.7425 30.3279 20.7108 30.2877 20.6891 30.2423C20.6673 30.1969 20.656 30.1474 20.656 30.0974V27.8209C20.656 27.7606 20.6253 27.7304 20.5638 27.7304L18.1809 27.727ZM25.3298 44.7339L23.4947 44.7496C23.4155 44.7507 23.4037 44.7235 23.4592 44.6678L26.7447 41.4313C26.7811 41.3944 26.8015 41.3458 26.8014 41.2957L26.7695 29.2348C26.7695 29.1641 26.7955 29.1055 26.8475 29.0591C27.4161 28.5467 27.4894 28.04 27.0674 27.5391C26.1667 26.4696 24.4645 28.0226 25.8121 29.0261C25.8352 29.0434 25.854 29.0659 25.8669 29.0918C25.8799 29.1178 25.8866 29.1465 25.8865 29.1757V40.7809C25.8865 40.9068 25.8355 41.028 25.7447 41.1183L21.2429 45.5322C21.1885 45.5855 21.1998 45.6122 21.2766 45.6122L25.3067 45.607C25.3321 45.607 25.357 45.6129 25.3795 45.624C25.402 45.6352 25.4214 45.6514 25.4362 45.6713C26.2571 46.7652 27.7553 45.8452 27.2376 44.7896C26.8794 44.0574 25.9769 44.0139 25.4699 44.6643C25.4344 44.7107 25.3877 44.7339 25.3298 44.7339ZM23.5621 28.2365C22.4504 27.8626 21.805 29.2348 22.766 30.0487C22.7882 30.0672 22.806 30.0903 22.8183 30.1164C22.8305 30.1425 22.8369 30.1711 22.8369 30.2L22.7713 39.9513C22.7701 40.007 22.7494 40.0545 22.7092 40.0939L20.2695 42.4887C20.2496 42.5077 20.2254 42.5221 20.1987 42.5309C20.172 42.5396 20.1435 42.5424 20.1152 42.5391C19.4663 42.4533 19.0733 42.68 18.9362 43.2191C18.5461 44.7513 21.1649 44.9757 20.8848 43.2278C20.8803 43.202 20.8823 43.1754 20.8907 43.1503C20.899 43.1252 20.9134 43.1023 20.9326 43.0835L23.6507 40.4765C23.6933 40.4359 23.7145 40.3867 23.7145 40.3287V30.1757C23.7145 30.1154 23.7382 30.0661 23.7855 30.0278C24.4982 29.4591 24.4468 28.5339 23.5621 28.2365ZM45.0355 30.4922C44.3688 30.9739 43.633 30.6226 42.8351 30.7148C42.1791 30.7913 41.5567 31.5861 41.1507 32.0574C41.1118 32.1022 41.0905 32.1595 41.0904 32.2191V36.3478C41.0905 36.417 41.1185 36.4833 41.1684 36.5322L41.8298 37.1826C41.8494 37.2018 41.8648 37.2246 41.8752 37.2497C41.8856 37.2748 41.8906 37.3017 41.8901 37.3287C41.8316 39.2539 44.1915 38.68 43.8404 37.3078C43.578 36.28 42.516 36.9409 42.1028 36.207C41.805 35.68 41.977 33.6643 41.977 32.9757C41.977 32.2174 42.6968 31.6087 43.4521 31.607C43.8694 31.607 44.2884 31.6081 44.7092 31.6104C44.7683 31.6104 44.8162 31.633 44.8528 31.6783C45.3091 32.2394 45.8014 32.3293 46.3298 31.9478C47.3546 31.2052 46.3422 29.5443 45.0355 30.4922ZM14.0213 34.5513C13.7216 34.2678 13.6613 34.0783 13.7571 33.6835C13.7696 33.6322 13.7613 33.5785 13.734 33.5339C13.3712 32.9368 12.9013 32.7617 12.3245 33.0087C11.2021 33.4904 11.805 35.0278 13.0319 34.8557C13.0556 34.8524 13.0798 34.8546 13.1026 34.8622C13.1253 34.8697 13.1461 34.8824 13.1631 34.8991L18.4486 40.08C18.4749 40.1057 18.4899 40.1405 18.4902 40.1767C18.4906 40.2129 18.4762 40.2475 18.4504 40.273L17.2748 41.4244C17.2538 41.445 17.2283 41.4609 17.2001 41.4708C17.1719 41.4807 17.1417 41.4844 17.1117 41.4817C16.3741 41.4139 15.7145 41.8974 15.8387 42.6504C16.0372 43.873 18.0904 43.6296 17.7943 42.247C17.7883 42.2192 17.7896 42.1903 17.7979 42.1629C17.8063 42.1356 17.8215 42.1107 17.8422 42.0904L19.7252 40.247C19.7642 40.2075 19.7642 40.1681 19.7252 40.1287C17.8505 38.2412 15.9492 36.382 14.0213 34.5513ZM12.1507 38.9026C12.367 39.1026 12.3404 39.2122 12.3528 39.4748C12.4326 41.193 15.0213 40.3948 14.2128 38.967C14.0106 38.6099 13.6531 38.4649 13.1401 38.5322C13.1076 38.5365 13.0745 38.5334 13.0435 38.5232C13.0124 38.5129 12.9842 38.4958 12.961 38.473L9.69681 35.273C9.67752 35.2536 9.66314 35.23 9.65483 35.2044C9.64651 35.1787 9.6445 35.1516 9.64894 35.1252C9.84929 33.9165 8.29078 33.407 7.7305 34.4852C7.34043 35.2365 8.09043 35.953 8.92021 35.8504C8.9477 35.8472 8.9755 35.8502 9.00137 35.8593C9.02723 35.8683 9.05045 35.8832 9.06915 35.9026C10.0751 36.9275 11.1022 37.9275 12.1507 38.9026ZM29.9557 39.36L33.7429 43.0748C33.7617 43.0932 33.7759 43.1156 33.7845 43.1403C33.7931 43.165 33.7959 43.1914 33.7926 43.2174C33.6897 44.0122 34.2145 44.5791 35.0319 44.4226C36.2553 44.1878 35.9947 42.3722 34.5603 42.52C34.532 42.5227 34.5034 42.5191 34.4764 42.5095C34.4494 42.4999 34.4248 42.4845 34.4043 42.4643L29.0248 37.1843C29.0185 37.1777 29.0102 37.1731 29.0012 37.1711C28.9921 37.1691 28.9826 37.1698 28.974 37.1732C28.9654 37.1766 28.958 37.1825 28.9528 37.19C28.9477 37.1976 28.9449 37.2065 28.945 37.2157V44.1826C28.945 44.2128 28.9376 44.2426 28.9234 44.2695C28.9093 44.2964 28.8887 44.3197 28.8635 44.3374C27.7766 45.1148 28.7695 46.6609 29.9096 46.0278C30.4539 45.727 30.5993 44.9548 30.1082 44.4922C29.7695 44.1722 29.8493 44.073 29.8404 43.6522C29.8121 42.2307 29.8262 40.8093 29.883 39.3878C29.8853 39.3252 29.9096 39.3159 29.9557 39.36Z" fill="#111111"/>
</svg>
